<mxfile host="app.diagrams.net" modified="2023-10-05T08:02:40.924Z" agent="Mozilla/5.0 (Windows NT 10.0; Win64; x64) AppleWebKit/537.36 (KHTML, like Gecko) Chrome/117.0.0.0 Safari/537.36" etag="EbaJOiALl673F2_jUcMx" version="22.0.2" type="github">
  <diagram name="Page-1" id="sKJEA5jZcG_b2QvjX5cS">
    <mxGraphModel dx="3020" dy="4259" grid="1" gridSize="10" guides="1" tooltips="1" connect="1" arrows="1" fold="1" page="1" pageScale="1" pageWidth="827" pageHeight="1169" math="0" shadow="0">
      <root>
        <mxCell id="0" />
        <mxCell id="1" parent="0" />
        <mxCell id="M8zQa_Ylqo-KHK09IEU5-1" value="" style="group" parent="1" vertex="1" connectable="0">
          <mxGeometry x="-1400" y="-2370" width="2390" height="1244.73" as="geometry" />
        </mxCell>
        <mxCell id="M8zQa_Ylqo-KHK09IEU5-127" value="" style="group" parent="M8zQa_Ylqo-KHK09IEU5-1" vertex="1" connectable="0">
          <mxGeometry width="2390" height="1140" as="geometry" />
        </mxCell>
        <mxCell id="M8zQa_Ylqo-KHK09IEU5-2" value="" style="shape=folder;fontStyle=1;spacingTop=10;tabWidth=130;tabHeight=40;tabPosition=left;html=1;" parent="M8zQa_Ylqo-KHK09IEU5-127" vertex="1">
          <mxGeometry width="2390" height="1140" as="geometry" />
        </mxCell>
        <mxCell id="M8zQa_Ylqo-KHK09IEU5-3" value="Presentation Layer" style="text;html=1;strokeColor=none;fillColor=none;align=center;verticalAlign=middle;whiteSpace=wrap;rounded=0;" parent="M8zQa_Ylqo-KHK09IEU5-127" vertex="1">
          <mxGeometry width="634.0816326530613" height="207.2727272727273" as="geometry" />
        </mxCell>
        <mxCell id="M8zQa_Ylqo-KHK09IEU5-4" value="&lt;p style=&quot;margin: 0px ; margin-top: 6px ; text-align: center&quot;&gt;&lt;b&gt;PlotManager&lt;/b&gt;&lt;/p&gt;&lt;hr&gt;&lt;p style=&quot;margin-top: 0px ; margin-bottom: 0px ; margin-left: 8px&quot;&gt;+ process(data: Data, preferences: PlotPreferences): RenderedPlot&lt;/p&gt;&lt;p style=&quot;margin-top: 0px ; margin-bottom: 0px ; margin-left: 8px&quot;&gt;+ computePlotData(data: Data): ComputedData&lt;/p&gt;&lt;p style=&quot;margin-top: 0px ; margin-bottom: 0px ; margin-left: 8px&quot;&gt;+ renderPlot(computedData: ComputedData, preferences: PlotPreferences): RenderedPlot&lt;/p&gt;&lt;p style=&quot;margin-top: 0px ; margin-bottom: 0px ; margin-left: 8px&quot;&gt;+ adjustPlot(interaction: ClientInteraction)&lt;/p&gt;" style="align=left;overflow=fill;html=1;dropTarget=0;" parent="M8zQa_Ylqo-KHK09IEU5-127" vertex="1">
          <mxGeometry x="920" y="280" width="520" height="123.18" as="geometry" />
        </mxCell>
        <mxCell id="M8zQa_Ylqo-KHK09IEU5-5" value="" style="shape=component;jettyWidth=8;jettyHeight=4;" parent="M8zQa_Ylqo-KHK09IEU5-4" vertex="1">
          <mxGeometry x="1" width="20" height="20" relative="1" as="geometry">
            <mxPoint x="-24" y="4" as="offset" />
          </mxGeometry>
        </mxCell>
        <mxCell id="M8zQa_Ylqo-KHK09IEU5-6" value="&lt;p style=&quot;margin: 0px ; margin-top: 6px ; text-align: center&quot;&gt;&lt;b&gt;Client&lt;/b&gt;&lt;/p&gt;&lt;hr&gt;&lt;p style=&quot;margin-top: 0px ; margin-bottom: 0px ; margin-left: 8px&quot;&gt;- inputData: Data&lt;/p&gt;&lt;p style=&quot;margin-top: 0px ; margin-bottom: 0px ; margin-left: 8px&quot;&gt;- plotPreferences: PlotPreferences&lt;/p&gt;&lt;p style=&quot;margin-top: 0px ; margin-bottom: 0px ; margin-left: 8px&quot;&gt;&lt;br&gt;&lt;/p&gt;&lt;p style=&quot;margin-top: 0px ; margin-bottom: 0px ; margin-left: 8px&quot;&gt;+ uploadData(data: Data)&lt;/p&gt;&lt;p style=&quot;margin-top: 0px ; margin-bottom: 0px ; margin-left: 8px&quot;&gt;+ setPlotPreferences(preferences: PlotPreferences)&lt;/p&gt;&lt;p style=&quot;margin-top: 0px ; margin-bottom: 0px ; margin-left: 8px&quot;&gt;+ interactWithPlot(interaction: ClientInteraction)&lt;/p&gt;&lt;p style=&quot;margin-top: 0px ; margin-bottom: 0px ; margin-left: 8px&quot;&gt;+ saveExportShare()&lt;/p&gt;" style="align=left;overflow=fill;html=1;dropTarget=0;" parent="M8zQa_Ylqo-KHK09IEU5-127" vertex="1">
          <mxGeometry x="920" y="80" width="520" height="153.18" as="geometry" />
        </mxCell>
        <mxCell id="M8zQa_Ylqo-KHK09IEU5-7" value="" style="shape=component;jettyWidth=8;jettyHeight=4;" parent="M8zQa_Ylqo-KHK09IEU5-6" vertex="1">
          <mxGeometry x="1" width="20" height="20" relative="1" as="geometry">
            <mxPoint x="-24" y="4" as="offset" />
          </mxGeometry>
        </mxCell>
        <mxCell id="M8zQa_Ylqo-KHK09IEU5-8" value="&lt;p style=&quot;margin: 0px ; margin-top: 6px ; text-align: center&quot;&gt;&lt;b&gt;PlotType&lt;/b&gt;&lt;/p&gt;&lt;hr&gt;&lt;p style=&quot;margin-top: 0px ; margin-bottom: 0px ; margin-left: 8px&quot;&gt;LINE&lt;/p&gt;&lt;p style=&quot;margin-top: 0px ; margin-bottom: 0px ; margin-left: 8px&quot;&gt;BAR&lt;/p&gt;&lt;p style=&quot;margin-top: 0px ; margin-bottom: 0px ; margin-left: 8px&quot;&gt;SCATTER&lt;/p&gt;&lt;p style=&quot;margin-top: 0px ; margin-bottom: 0px ; margin-left: 8px&quot;&gt;PIE&lt;/p&gt;" style="align=left;overflow=fill;html=1;dropTarget=0;" parent="M8zQa_Ylqo-KHK09IEU5-127" vertex="1">
          <mxGeometry x="1860" y="270" width="200" height="123.18" as="geometry" />
        </mxCell>
        <mxCell id="M8zQa_Ylqo-KHK09IEU5-9" value="" style="shape=component;jettyWidth=8;jettyHeight=4;" parent="M8zQa_Ylqo-KHK09IEU5-8" vertex="1">
          <mxGeometry x="1" width="20" height="20" relative="1" as="geometry">
            <mxPoint x="-24" y="4" as="offset" />
          </mxGeometry>
        </mxCell>
        <mxCell id="M8zQa_Ylqo-KHK09IEU5-10" value="&lt;p style=&quot;margin: 0px ; margin-top: 6px ; text-align: center&quot;&gt;&lt;b&gt;InteractionType&lt;/b&gt;&lt;/p&gt;&lt;hr&gt;&lt;p style=&quot;margin-top: 0px ; margin-bottom: 0px ; margin-left: 8px&quot;&gt;ZOOM&lt;/p&gt;&lt;p style=&quot;margin-top: 0px ; margin-bottom: 0px ; margin-left: 8px&quot;&gt;PAN&lt;/p&gt;&lt;p style=&quot;margin-top: 0px ; margin-bottom: 0px ; margin-left: 8px&quot;&gt;&lt;br&gt;&lt;/p&gt;" style="align=left;overflow=fill;html=1;dropTarget=0;" parent="M8zQa_Ylqo-KHK09IEU5-127" vertex="1">
          <mxGeometry x="2090" y="270" width="210" height="123.18" as="geometry" />
        </mxCell>
        <mxCell id="M8zQa_Ylqo-KHK09IEU5-11" value="" style="shape=component;jettyWidth=8;jettyHeight=4;" parent="M8zQa_Ylqo-KHK09IEU5-10" vertex="1">
          <mxGeometry x="1" width="20" height="20" relative="1" as="geometry">
            <mxPoint x="-24" y="4" as="offset" />
          </mxGeometry>
        </mxCell>
        <mxCell id="M8zQa_Ylqo-KHK09IEU5-12" value="&lt;p style=&quot;margin: 0px ; margin-top: 6px ; text-align: center&quot;&gt;&lt;b&gt;ClientInteraction&lt;/b&gt;&lt;/p&gt;&lt;hr&gt;&lt;p style=&quot;margin-top: 0px ; margin-bottom: 0px ; margin-left: 8px&quot;&gt;- type: InteractionType&lt;/p&gt;&lt;p style=&quot;margin-top: 0px ; margin-bottom: 0px ; margin-left: 8px&quot;&gt;- value: any&lt;/p&gt;" style="align=left;overflow=fill;html=1;dropTarget=0;" parent="M8zQa_Ylqo-KHK09IEU5-127" vertex="1">
          <mxGeometry x="1640" y="95" width="230" height="123.18" as="geometry" />
        </mxCell>
        <mxCell id="M8zQa_Ylqo-KHK09IEU5-13" value="" style="shape=component;jettyWidth=8;jettyHeight=4;" parent="M8zQa_Ylqo-KHK09IEU5-12" vertex="1">
          <mxGeometry x="1" width="20" height="20" relative="1" as="geometry">
            <mxPoint x="-24" y="4" as="offset" />
          </mxGeometry>
        </mxCell>
        <mxCell id="M8zQa_Ylqo-KHK09IEU5-14" value="&lt;p style=&quot;margin: 0px ; margin-top: 6px ; text-align: center&quot;&gt;&lt;b&gt;Data&lt;/b&gt;&lt;/p&gt;&lt;hr&gt;&lt;p style=&quot;margin-top: 0px ; margin-bottom: 0px ; margin-left: 8px&quot;&gt;- rawData: array double&lt;/p&gt;&lt;p style=&quot;margin-top: 0px ; margin-bottom: 0px ; margin-left: 8px&quot;&gt;&lt;br&gt;&lt;/p&gt;" style="align=left;overflow=fill;html=1;dropTarget=0;" parent="M8zQa_Ylqo-KHK09IEU5-127" vertex="1">
          <mxGeometry x="660" y="508.41" width="230" height="123.18" as="geometry" />
        </mxCell>
        <mxCell id="M8zQa_Ylqo-KHK09IEU5-15" value="" style="shape=component;jettyWidth=8;jettyHeight=4;" parent="M8zQa_Ylqo-KHK09IEU5-14" vertex="1">
          <mxGeometry x="1" width="20" height="20" relative="1" as="geometry">
            <mxPoint x="-24" y="4" as="offset" />
          </mxGeometry>
        </mxCell>
        <mxCell id="M8zQa_Ylqo-KHK09IEU5-16" value="&lt;p style=&quot;margin: 0px ; margin-top: 6px ; text-align: center&quot;&gt;&lt;b&gt;Plot&lt;/b&gt;&lt;/p&gt;&lt;hr&gt;&lt;p style=&quot;margin-top: 0px ; margin-bottom: 0px ; margin-left: 8px&quot;&gt;- visualization: Image&lt;/p&gt;&lt;p style=&quot;margin-top: 0px ; margin-bottom: 0px ; margin-left: 8px&quot;&gt;&lt;br&gt;&lt;/p&gt;" style="align=left;overflow=fill;html=1;dropTarget=0;" parent="M8zQa_Ylqo-KHK09IEU5-127" vertex="1">
          <mxGeometry x="1065" y="508.41" width="230" height="123.18" as="geometry" />
        </mxCell>
        <mxCell id="M8zQa_Ylqo-KHK09IEU5-17" value="" style="shape=component;jettyWidth=8;jettyHeight=4;" parent="M8zQa_Ylqo-KHK09IEU5-16" vertex="1">
          <mxGeometry x="1" width="20" height="20" relative="1" as="geometry">
            <mxPoint x="-24" y="4" as="offset" />
          </mxGeometry>
        </mxCell>
        <mxCell id="M8zQa_Ylqo-KHK09IEU5-18" value="&lt;p style=&quot;margin: 0px ; margin-top: 6px ; text-align: center&quot;&gt;&lt;b&gt;PlotPreference&lt;/b&gt;&lt;/p&gt;&lt;hr&gt;&lt;p style=&quot;margin-top: 0px ; margin-bottom: 0px ; margin-left: 8px&quot;&gt;- xAxisLabel: string&lt;/p&gt;&lt;p style=&quot;margin-top: 0px ; margin-bottom: 0px ; margin-left: 8px&quot;&gt;- yAxisLabel: string&lt;/p&gt;&lt;p style=&quot;margin-top: 0px ; margin-bottom: 0px ; margin-left: 8px&quot;&gt;- plotType: PlotType&lt;/p&gt;&lt;p style=&quot;margin-top: 0px ; margin-bottom: 0px ; margin-left: 8px&quot;&gt;+ validate(): bool&lt;/p&gt;" style="align=left;overflow=fill;html=1;dropTarget=0;" parent="M8zQa_Ylqo-KHK09IEU5-127" vertex="1">
          <mxGeometry x="1490" y="508.40999999999997" width="230" height="123.18" as="geometry" />
        </mxCell>
        <mxCell id="M8zQa_Ylqo-KHK09IEU5-19" value="" style="shape=component;jettyWidth=8;jettyHeight=4;" parent="M8zQa_Ylqo-KHK09IEU5-18" vertex="1">
          <mxGeometry x="1" width="20" height="20" relative="1" as="geometry">
            <mxPoint x="-24" y="4" as="offset" />
          </mxGeometry>
        </mxCell>
        <mxCell id="M8zQa_Ylqo-KHK09IEU5-20" value="&lt;span style=&quot;font-size: 12px&quot;&gt;Request Plot&lt;/span&gt;" style="endArrow=open;endSize=12;dashed=1;html=1;labelBackgroundColor=#FFFFFF;align=center;" parent="M8zQa_Ylqo-KHK09IEU5-127" source="M8zQa_Ylqo-KHK09IEU5-6" target="M8zQa_Ylqo-KHK09IEU5-4" edge="1">
          <mxGeometry width="160" relative="1" as="geometry">
            <mxPoint x="770" y="330" as="sourcePoint" />
            <mxPoint x="930" y="330" as="targetPoint" />
          </mxGeometry>
        </mxCell>
        <mxCell id="M8zQa_Ylqo-KHK09IEU5-21" value="Upload" style="endArrow=open;endSize=12;dashed=1;html=1;labelBackgroundColor=#FFFFFF;align=center;" parent="M8zQa_Ylqo-KHK09IEU5-127" source="M8zQa_Ylqo-KHK09IEU5-6" target="M8zQa_Ylqo-KHK09IEU5-14" edge="1">
          <mxGeometry width="160" relative="1" as="geometry">
            <mxPoint x="1050" y="280" as="sourcePoint" />
            <mxPoint x="1210" y="280" as="targetPoint" />
            <Array as="points">
              <mxPoint x="835" y="160" />
            </Array>
          </mxGeometry>
        </mxCell>
        <mxCell id="M8zQa_Ylqo-KHK09IEU5-22" value="Use" style="endArrow=open;endSize=12;dashed=1;html=1;labelBackgroundColor=#FFFFFF;align=center;" parent="M8zQa_Ylqo-KHK09IEU5-127" source="M8zQa_Ylqo-KHK09IEU5-4" target="M8zQa_Ylqo-KHK09IEU5-16" edge="1">
          <mxGeometry width="160" relative="1" as="geometry">
            <mxPoint x="1070" y="480" as="sourcePoint" />
            <mxPoint x="1230" y="480" as="targetPoint" />
          </mxGeometry>
        </mxCell>
        <mxCell id="M8zQa_Ylqo-KHK09IEU5-23" value="Use" style="endArrow=open;endSize=12;dashed=1;html=1;labelBackgroundColor=#FFFFFF;align=center;" parent="M8zQa_Ylqo-KHK09IEU5-127" source="M8zQa_Ylqo-KHK09IEU5-4" target="M8zQa_Ylqo-KHK09IEU5-18" edge="1">
          <mxGeometry width="160" relative="1" as="geometry">
            <mxPoint x="1169.0593999999996" y="413.1800000000003" as="sourcePoint" />
            <mxPoint x="1125.9406" y="540" as="targetPoint" />
          </mxGeometry>
        </mxCell>
        <mxCell id="M8zQa_Ylqo-KHK09IEU5-24" value="Use" style="endArrow=open;endSize=12;dashed=1;html=1;labelBackgroundColor=#FFFFFF;align=center;exitX=1;exitY=0.5;exitDx=0;exitDy=0;" parent="M8zQa_Ylqo-KHK09IEU5-127" source="M8zQa_Ylqo-KHK09IEU5-4" target="M8zQa_Ylqo-KHK09IEU5-12" edge="1">
          <mxGeometry width="160" relative="1" as="geometry">
            <mxPoint x="1235.5765999999999" y="413.1800000000003" as="sourcePoint" />
            <mxPoint x="1329.4233999999997" y="540" as="targetPoint" />
          </mxGeometry>
        </mxCell>
        <mxCell id="M8zQa_Ylqo-KHK09IEU5-25" value="Performs" style="endArrow=open;endSize=12;dashed=1;html=1;labelBackgroundColor=#FFFFFF;align=center;" parent="M8zQa_Ylqo-KHK09IEU5-127" source="M8zQa_Ylqo-KHK09IEU5-6" target="M8zQa_Ylqo-KHK09IEU5-12" edge="1">
          <mxGeometry width="160" relative="1" as="geometry">
            <mxPoint x="1449.9999999999995" y="381.8812621359225" as="sourcePoint" />
            <mxPoint x="1589.9999999999995" y="398.19194174757286" as="targetPoint" />
            <Array as="points" />
          </mxGeometry>
        </mxCell>
        <UserObject label="" plantUmlData="{&#xa;  &quot;data&quot;: &quot;@startuml\nskinparam backgroundColor #EEEBDC\nskinparam activity {\n    BackgroundColor #A2C8EC\n    BorderColor #1C7D9D\n    FontName Courier\n}\n\nstart\n\n:User accesses PlotXpert web interface;\n:User uploads data;\n\nif (Is data valid?) then (yes)\n    :User sets plot preferences;\n    \n    if (Are preferences valid?) then (yes)\n        :PlotXpert processes the data;\n        :PlotXpert computes plot data;\n        :Render plot based on user preferences;\n        \n        if (Is user interaction detected?) then (yes)\n            :User interacts with rendered plot;\n            :Apply user adjustments to plot;\n        else (no)\n            :Display plot;\n        endif\n        :User saves, exports or shares plot;\n    else (no)\n        :Notify user of invalid preferences;\n    endif\nelse (no)\n    :Notify user of invalid data;\nendif\n\nstop\n\n@enduml\n&quot;,&#xa;  &quot;format&quot;: &quot;svg&quot;&#xa;}" id="M8zQa_Ylqo-KHK09IEU5-26">
          <mxCell style="shape=image;noLabel=1;verticalAlign=top;aspect=fixed;imageAspect=0;image=data:image/svg+xml,PD94bWwgdmVyc2lvbj0iMS4wIiBlbmNvZGluZz0idXMtYXNjaWkiIHN0YW5kYWxvbmU9Im5vIj8+PHN2ZyB4bWxucz0iaHR0cDovL3d3dy53My5vcmcvMjAwMC9zdmciIHhtbG5zOnhsaW5rPSJodHRwOi8vd3d3LnczLm9yZy8xOTk5L3hsaW5rIiBjb250ZW50U3R5bGVUeXBlPSJ0ZXh0L2NzcyIgaGVpZ2h0PSI3NTBweCIgcHJlc2VydmVBc3BlY3RSYXRpbz0ibm9uZSIgc3R5bGU9IndpZHRoOjkxMHB4O2hlaWdodDo3NTBweDtiYWNrZ3JvdW5kOiNFRUVCREM7IiB2ZXJzaW9uPSIxLjEiIHZpZXdCb3g9IjAgMCA5MTAgNzUwIiB3aWR0aD0iOTEwcHgiIHpvb21BbmRQYW49Im1hZ25pZnkiPjxkZWZzLz48Zz48cmVjdCBmaWxsPSIjRUVFQkRDIiBoZWlnaHQ9Ijc1MCIgc3R5bGU9InN0cm9rZTpub25lO3N0cm9rZS13aWR0aDoxLjA7IiB3aWR0aD0iOTEwIiB4PSIwIiB5PSIwIi8+PGVsbGlwc2UgY3g9IjU5Ny43NSIgY3k9IjIwIiBmaWxsPSIjMjIyMjIyIiByeD0iMTAiIHJ5PSIxMCIgc3R5bGU9InN0cm9rZTojMjIyMjIyO3N0cm9rZS13aWR0aDoxLjA7Ii8+PHJlY3QgZmlsbD0iI0EyQzhFQyIgaGVpZ2h0PSIzMi44NDM4IiByeD0iMTIuNSIgcnk9IjEyLjUiIHN0eWxlPSJzdHJva2U6IzFDN0Q5RDtzdHJva2Utd2lkdGg6MC41OyIgd2lkdGg9IjI2NSIgeD0iNDY1LjI1IiB5PSI1MCIvPjx0ZXh0IGZpbGw9IiMwMDAwMDAiIGZvbnQtZmFtaWx5PSJDb3VyaWVyIiBmb250LXNpemU9IjEyIiBsZW5ndGhBZGp1c3Q9InNwYWNpbmciIHRleHRMZW5ndGg9IjI0NSIgeD0iNDc1LjI1IiB5PSI3MS4zNDM4Ij5Vc2VyJiMxNjA7YWNjZXNzZXMmIzE2MDtQbG90WHBlcnQmIzE2MDt3ZWImIzE2MDtpbnRlcmZhY2U8L3RleHQ+PHJlY3QgZmlsbD0iI0EyQzhFQyIgaGVpZ2h0PSIzMi44NDM4IiByeD0iMTIuNSIgcnk9IjEyLjUiIHN0eWxlPSJzdHJva2U6IzFDN0Q5RDtzdHJva2Utd2lkdGg6MC41OyIgd2lkdGg9IjEzNSIgeD0iNTMwLjI1IiB5PSIxMDIuODQzOCIvPjx0ZXh0IGZpbGw9IiMwMDAwMDAiIGZvbnQtZmFtaWx5PSJDb3VyaWVyIiBmb250LXNpemU9IjEyIiBsZW5ndGhBZGp1c3Q9InNwYWNpbmciIHRleHRMZW5ndGg9IjExNSIgeD0iNTQwLjI1IiB5PSIxMjQuMTg3NSI+VXNlciYjMTYwO3VwbG9hZHMmIzE2MDtkYXRhPC90ZXh0Pjxwb2x5Z29uIGZpbGw9IiNBMkM4RUMiIHBvaW50cz0iNTU1Ljc1LDE1NS42ODc1LDYzOS43NSwxNTUuNjg3NSw2NTEuNzUsMTY3LjY4NzUsNjM5Ljc1LDE3OS42ODc1LDU1NS43NSwxNzkuNjg3NSw1NDMuNzUsMTY3LjY4NzUsNTU1Ljc1LDE1NS42ODc1IiBzdHlsZT0ic3Ryb2tlOiMxQzdEOUQ7c3Ryb2tlLXdpZHRoOjAuNTsiLz48dGV4dCBmaWxsPSIjMDAwMDAwIiBmb250LWZhbWlseT0iQ291cmllciIgZm9udC1zaXplPSIxMSIgbGVuZ3RoQWRqdXN0PSJzcGFjaW5nIiB0ZXh0TGVuZ3RoPSI4NCIgeD0iNTU1Ljc1IiB5PSIxNzIuMTk5MiI+SXMmIzE2MDtkYXRhJiMxNjA7dmFsaWQ/PC90ZXh0Pjx0ZXh0IGZpbGw9IiMwMDAwMDAiIGZvbnQtZmFtaWx5PSJzYW5zLXNlcmlmIiBmb250LXNpemU9IjExIiBsZW5ndGhBZGp1c3Q9InNwYWNpbmciIHRleHRMZW5ndGg9IjE4IiB4PSI1MjUuNzUiIHk9IjE2Ni4zMTI1Ij55ZXM8L3RleHQ+PHRleHQgZmlsbD0iIzAwMDAwMCIgZm9udC1mYW1pbHk9InNhbnMtc2VyaWYiIGZvbnQtc2l6ZT0iMTEiIGxlbmd0aEFkanVzdD0ic3BhY2luZyIgdGV4dExlbmd0aD0iMTIiIHg9IjY1MS43NSIgeT0iMTY2LjMxMjUiPm5vPC90ZXh0PjxyZWN0IGZpbGw9IiNBMkM4RUMiIGhlaWdodD0iMzIuODQzOCIgcng9IjEyLjUiIHJ5PSIxMi41IiBzdHlsZT0ic3Ryb2tlOiMxQzdEOUQ7c3Ryb2tlLXdpZHRoOjAuNTsiIHdpZHRoPSIxOTQiIHg9IjI5Ny41IiB5PSIxODkuNjg3NSIvPjx0ZXh0IGZpbGw9IiMwMDAwMDAiIGZvbnQtZmFtaWx5PSJDb3VyaWVyIiBmb250LXNpemU9IjEyIiBsZW5ndGhBZGp1c3Q9InNwYWNpbmciIHRleHRMZW5ndGg9IjE3NCIgeD0iMzA3LjUiIHk9IjIxMS4wMzEzIj5Vc2VyJiMxNjA7c2V0cyYjMTYwO3Bsb3QmIzE2MDtwcmVmZXJlbmNlczwvdGV4dD48cG9seWdvbiBmaWxsPSIjQTJDOEVDIiBwb2ludHM9IjMyOC41LDI0Mi41MzEzLDQ2MC41LDI0Mi41MzEzLDQ3Mi41LDI1NC41MzEzLDQ2MC41LDI2Ni41MzEzLDMyOC41LDI2Ni41MzEzLDMxNi41LDI1NC41MzEzLDMyOC41LDI0Mi41MzEzIiBzdHlsZT0ic3Ryb2tlOiMxQzdEOUQ7c3Ryb2tlLXdpZHRoOjAuNTsiLz48dGV4dCBmaWxsPSIjMDAwMDAwIiBmb250LWZhbWlseT0iQ291cmllciIgZm9udC1zaXplPSIxMSIgbGVuZ3RoQWRqdXN0PSJzcGFjaW5nIiB0ZXh0TGVuZ3RoPSIxMzIiIHg9IjMyOC41IiB5PSIyNTkuMDQzIj5BcmUmIzE2MDtwcmVmZXJlbmNlcyYjMTYwO3ZhbGlkPzwvdGV4dD48dGV4dCBmaWxsPSIjMDAwMDAwIiBmb250LWZhbWlseT0ic2Fucy1zZXJpZiIgZm9udC1zaXplPSIxMSIgbGVuZ3RoQWRqdXN0PSJzcGFjaW5nIiB0ZXh0TGVuZ3RoPSIxOCIgeD0iMjk4LjUiIHk9IjI1My4xNTYzIj55ZXM8L3RleHQ+PHRleHQgZmlsbD0iIzAwMDAwMCIgZm9udC1mYW1pbHk9InNhbnMtc2VyaWYiIGZvbnQtc2l6ZT0iMTEiIGxlbmd0aEFkanVzdD0ic3BhY2luZyIgdGV4dExlbmd0aD0iMTIiIHg9IjQ3Mi41IiB5PSIyNTMuMTU2MyI+bm88L3RleHQ+PHJlY3QgZmlsbD0iI0EyQzhFQyIgaGVpZ2h0PSIzMi44NDM4IiByeD0iMTIuNSIgcnk9IjEyLjUiIHN0eWxlPSJzdHJva2U6IzFDN0Q5RDtzdHJva2Utd2lkdGg6MC41OyIgd2lkdGg9IjIwNyIgeD0iMTM1LjUiIHk9IjI3Ni41MzEzIi8+PHRleHQgZmlsbD0iIzAwMDAwMCIgZm9udC1mYW1pbHk9IkNvdXJpZXIiIGZvbnQtc2l6ZT0iMTIiIGxlbmd0aEFkanVzdD0ic3BhY2luZyIgdGV4dExlbmd0aD0iMTg3IiB4PSIxNDUuNSIgeT0iMjk3Ljg3NSI+UGxvdFhwZXJ0JiMxNjA7cHJvY2Vzc2VzJiMxNjA7dGhlJiMxNjA7ZGF0YTwvdGV4dD48cmVjdCBmaWxsPSIjQTJDOEVDIiBoZWlnaHQ9IjMyLjg0MzgiIHJ4PSIxMi41IiByeT0iMTIuNSIgc3R5bGU9InN0cm9rZTojMUM3RDlEO3N0cm9rZS13aWR0aDowLjU7IiB3aWR0aD0iMjA0IiB4PSIxMzciIHk9IjMyOS4zNzUiLz48dGV4dCBmaWxsPSIjMDAwMDAwIiBmb250LWZhbWlseT0iQ291cmllciIgZm9udC1zaXplPSIxMiIgbGVuZ3RoQWRqdXN0PSJzcGFjaW5nIiB0ZXh0TGVuZ3RoPSIxODQiIHg9IjE0NyIgeT0iMzUwLjcxODgiPlBsb3RYcGVydCYjMTYwO2NvbXB1dGVzJiMxNjA7cGxvdCYjMTYwO2RhdGE8L3RleHQ+PHJlY3QgZmlsbD0iI0EyQzhFQyIgaGVpZ2h0PSIzMi44NDM4IiByeD0iMTIuNSIgcnk9IjEyLjUiIHN0eWxlPSJzdHJva2U6IzFDN0Q5RDtzdHJva2Utd2lkdGg6MC41OyIgd2lkdGg9IjI3MCIgeD0iMTA0IiB5PSIzODIuMjE4OCIvPjx0ZXh0IGZpbGw9IiMwMDAwMDAiIGZvbnQtZmFtaWx5PSJDb3VyaWVyIiBmb250LXNpemU9IjEyIiBsZW5ndGhBZGp1c3Q9InNwYWNpbmciIHRleHRMZW5ndGg9IjI1MCIgeD0iMTE0IiB5PSI0MDMuNTYyNSI+UmVuZGVyJiMxNjA7cGxvdCYjMTYwO2Jhc2VkJiMxNjA7b24mIzE2MDt1c2VyJiMxNjA7cHJlZmVyZW5jZXM8L3RleHQ+PHBvbHlnb24gZmlsbD0iI0EyQzhFQyIgcG9pbnRzPSIxNTIsNDM1LjA2MjUsMzI2LDQzNS4wNjI1LDMzOCw0NDcuMDYyNSwzMjYsNDU5LjA2MjUsMTUyLDQ1OS4wNjI1LDE0MCw0NDcuMDYyNSwxNTIsNDM1LjA2MjUiIHN0eWxlPSJzdHJva2U6IzFDN0Q5RDtzdHJva2Utd2lkdGg6MC41OyIvPjx0ZXh0IGZpbGw9IiMwMDAwMDAiIGZvbnQtZmFtaWx5PSJDb3VyaWVyIiBmb250LXNpemU9IjExIiBsZW5ndGhBZGp1c3Q9InNwYWNpbmciIHRleHRMZW5ndGg9IjE3NCIgeD0iMTUyIiB5PSI0NTEuNTc0MiI+SXMmIzE2MDt1c2VyJiMxNjA7aW50ZXJhY3Rpb24mIzE2MDtkZXRlY3RlZD88L3RleHQ+PHRleHQgZmlsbD0iIzAwMDAwMCIgZm9udC1mYW1pbHk9InNhbnMtc2VyaWYiIGZvbnQtc2l6ZT0iMTEiIGxlbmd0aEFkanVzdD0ic3BhY2luZyIgdGV4dExlbmd0aD0iMTgiIHg9IjEyMiIgeT0iNDQ1LjY4NzUiPnllczwvdGV4dD48dGV4dCBmaWxsPSIjMDAwMDAwIiBmb250LWZhbWlseT0ic2Fucy1zZXJpZiIgZm9udC1zaXplPSIxMSIgbGVuZ3RoQWRqdXN0PSJzcGFjaW5nIiB0ZXh0TGVuZ3RoPSIxMiIgeD0iMzM4IiB5PSI0NDUuNjg3NSI+bm88L3RleHQ+PHJlY3QgZmlsbD0iI0EyQzhFQyIgaGVpZ2h0PSIzMi44NDM4IiByeD0iMTIuNSIgcnk9IjEyLjUiIHN0eWxlPSJzdHJva2U6IzFDN0Q5RDtzdHJva2Utd2lkdGg6MC41OyIgd2lkdGg9IjIzOCIgeD0iMTEiIHk9IjQ2OS4wNjI1Ii8+PHRleHQgZmlsbD0iIzAwMDAwMCIgZm9udC1mYW1pbHk9IkNvdXJpZXIiIGZvbnQtc2l6ZT0iMTIiIGxlbmd0aEFkanVzdD0ic3BhY2luZyIgdGV4dExlbmd0aD0iMjE4IiB4PSIyMSIgeT0iNDkwLjQwNjMiPlVzZXImIzE2MDtpbnRlcmFjdHMmIzE2MDt3aXRoJiMxNjA7cmVuZGVyZWQmIzE2MDtwbG90PC90ZXh0PjxyZWN0IGZpbGw9IiNBMkM4RUMiIGhlaWdodD0iMzIuODQzOCIgcng9IjEyLjUiIHJ5PSIxMi41IiBzdHlsZT0ic3Ryb2tlOiMxQzdEOUQ7c3Ryb2tlLXdpZHRoOjAuNTsiIHdpZHRoPSIyMTgiIHg9IjIxIiB5PSI1MjEuOTA2MyIvPjx0ZXh0IGZpbGw9IiMwMDAwMDAiIGZvbnQtZmFtaWx5PSJDb3VyaWVyIiBmb250LXNpemU9IjEyIiBsZW5ndGhBZGp1c3Q9InNwYWNpbmciIHRleHRMZW5ndGg9IjE5OCIgeD0iMzEiIHk9IjU0My4yNSI+QXBwbHkmIzE2MDt1c2VyJiMxNjA7YWRqdXN0bWVudHMmIzE2MDt0byYjMTYwO3Bsb3Q8L3RleHQ+PHJlY3QgZmlsbD0iI0EyQzhFQyIgaGVpZ2h0PSIzMi44NDM4IiByeD0iMTIuNSIgcnk9IjEyLjUiIHN0eWxlPSJzdHJva2U6IzFDN0Q5RDtzdHJva2Utd2lkdGg6MC41OyIgd2lkdGg9Ijk5IiB4PSIyOTguNSIgeT0iNDY5LjA2MjUiLz48dGV4dCBmaWxsPSIjMDAwMDAwIiBmb250LWZhbWlseT0iQ291cmllciIgZm9udC1zaXplPSIxMiIgbGVuZ3RoQWRqdXN0PSJzcGFjaW5nIiB0ZXh0TGVuZ3RoPSI3OSIgeD0iMzA4LjUiIHk9IjQ5MC40MDYzIj5EaXNwbGF5JiMxNjA7cGxvdDwvdGV4dD48cG9seWdvbiBmaWxsPSIjQTJDOEVDIiBwb2ludHM9IjIzOSw1NjAuNzUsMjUxLDU3Mi43NSwyMzksNTg0Ljc1LDIyNyw1NzIuNzUsMjM5LDU2MC43NSIgc3R5bGU9InN0cm9rZTojMUM3RDlEO3N0cm9rZS13aWR0aDowLjU7Ii8+PHJlY3QgZmlsbD0iI0EyQzhFQyIgaGVpZ2h0PSIzMi44NDM4IiByeD0iMTIuNSIgcnk9IjEyLjUiIHN0eWxlPSJzdHJva2U6IzFDN0Q5RDtzdHJva2Utd2lkdGg6MC41OyIgd2lkdGg9IjI0OSIgeD0iMTE0LjUiIHk9IjYwNC43NSIvPjx0ZXh0IGZpbGw9IiMwMDAwMDAiIGZvbnQtZmFtaWx5PSJDb3VyaWVyIiBmb250LXNpemU9IjEyIiBsZW5ndGhBZGp1c3Q9InNwYWNpbmciIHRleHRMZW5ndGg9IjIyOSIgeD0iMTI0LjUiIHk9IjYyNi4wOTM4Ij5Vc2VyJiMxNjA7c2F2ZXMsJiMxNjA7ZXhwb3J0cyYjMTYwO29yJiMxNjA7c2hhcmVzJiMxNjA7cGxvdDwvdGV4dD48cmVjdCBmaWxsPSIjQTJDOEVDIiBoZWlnaHQ9IjMyLjg0MzgiIHJ4PSIxMi41IiByeT0iMTIuNSIgc3R5bGU9InN0cm9rZTojMUM3RDlEO3N0cm9rZS13aWR0aDowLjU7IiB3aWR0aD0iMjQ1IiB4PSI0MjcuNSIgeT0iMjc2LjUzMTMiLz48dGV4dCBmaWxsPSIjMDAwMDAwIiBmb250LWZhbWlseT0iQ291cmllciIgZm9udC1zaXplPSIxMiIgbGVuZ3RoQWRqdXN0PSJzcGFjaW5nIiB0ZXh0TGVuZ3RoPSIyMjUiIHg9IjQzNy41IiB5PSIyOTcuODc1Ij5Ob3RpZnkmIzE2MDt1c2VyJiMxNjA7b2YmIzE2MDtpbnZhbGlkJiMxNjA7cHJlZmVyZW5jZXM8L3RleHQ+PHBvbHlnb24gZmlsbD0iI0EyQzhFQyIgcG9pbnRzPSIzOTQuNSw2NDMuNTkzOCw0MDYuNSw2NTUuNTkzOCwzOTQuNSw2NjcuNTkzOCwzODIuNSw2NTUuNTkzOCwzOTQuNSw2NDMuNTkzOCIgc3R5bGU9InN0cm9rZTojMUM3RDlEO3N0cm9rZS13aWR0aDowLjU7Ii8+PHJlY3QgZmlsbD0iI0EyQzhFQyIgaGVpZ2h0PSIzMi44NDM4IiByeD0iMTIuNSIgcnk9IjEyLjUiIHN0eWxlPSJzdHJva2U6IzFDN0Q5RDtzdHJva2Utd2lkdGg6MC41OyIgd2lkdGg9IjE5NyIgeD0iNzAyLjUiIHk9IjE4OS42ODc1Ii8+PHRleHQgZmlsbD0iIzAwMDAwMCIgZm9udC1mYW1pbHk9IkNvdXJpZXIiIGZvbnQtc2l6ZT0iMTIiIGxlbmd0aEFkanVzdD0ic3BhY2luZyIgdGV4dExlbmd0aD0iMTc3IiB4PSI3MTIuNSIgeT0iMjExLjAzMTMiPk5vdGlmeSYjMTYwO3VzZXImIzE2MDtvZiYjMTYwO2ludmFsaWQmIzE2MDtkYXRhPC90ZXh0Pjxwb2x5Z29uIGZpbGw9IiNBMkM4RUMiIHBvaW50cz0iNTk3Ljc1LDY3My41OTM4LDYwOS43NSw2ODUuNTkzOCw1OTcuNzUsNjk3LjU5MzgsNTg1Ljc1LDY4NS41OTM4LDU5Ny43NSw2NzMuNTkzOCIgc3R5bGU9InN0cm9rZTojMUM3RDlEO3N0cm9rZS13aWR0aDowLjU7Ii8+PGVsbGlwc2UgY3g9IjU5Ny43NSIgY3k9IjcyOC41OTM4IiBmaWxsPSJub25lIiByeD0iMTEiIHJ5PSIxMSIgc3R5bGU9InN0cm9rZTojMjIyMjIyO3N0cm9rZS13aWR0aDoxLjA7Ii8+PGVsbGlwc2UgY3g9IjU5Ny43NSIgY3k9IjcyOC41OTM4IiBmaWxsPSIjMjIyMjIyIiByeD0iNiIgcnk9IjYiIHN0eWxlPSJzdHJva2U6IzExMTExMTtzdHJva2Utd2lkdGg6MS4wOyIvPjxsaW5lIHN0eWxlPSJzdHJva2U6IzE4MTgxODtzdHJva2Utd2lkdGg6MS4wOyIgeDE9IjU5Ny43NSIgeDI9IjU5Ny43NSIgeTE9IjMwIiB5Mj0iNTAiLz48cG9seWdvbiBmaWxsPSIjMTgxODE4IiBwb2ludHM9IjU5My43NSw0MCw1OTcuNzUsNTAsNjAxLjc1LDQwLDU5Ny43NSw0NCIgc3R5bGU9InN0cm9rZTojMTgxODE4O3N0cm9rZS13aWR0aDoxLjA7Ii8+PGxpbmUgc3R5bGU9InN0cm9rZTojMTgxODE4O3N0cm9rZS13aWR0aDoxLjA7IiB4MT0iNTk3Ljc1IiB4Mj0iNTk3Ljc1IiB5MT0iODIuODQzOCIgeTI9IjEwMi44NDM4Ii8+PHBvbHlnb24gZmlsbD0iIzE4MTgxOCIgcG9pbnRzPSI1OTMuNzUsOTIuODQzOCw1OTcuNzUsMTAyLjg0MzgsNjAxLjc1LDkyLjg0MzgsNTk3Ljc1LDk2Ljg0MzgiIHN0eWxlPSJzdHJva2U6IzE4MTgxODtzdHJva2Utd2lkdGg6MS4wOyIvPjxsaW5lIHN0eWxlPSJzdHJva2U6IzE4MTgxODtzdHJva2Utd2lkdGg6MS4wOyIgeDE9IjIzOSIgeDI9IjIzOSIgeTE9IjMwOS4zNzUiIHkyPSIzMjkuMzc1Ii8+PHBvbHlnb24gZmlsbD0iIzE4MTgxOCIgcG9pbnRzPSIyMzUsMzE5LjM3NSwyMzksMzI5LjM3NSwyNDMsMzE5LjM3NSwyMzksMzIzLjM3NSIgc3R5bGU9InN0cm9rZTojMTgxODE4O3N0cm9rZS13aWR0aDoxLjA7Ii8+PGxpbmUgc3R5bGU9InN0cm9rZTojMTgxODE4O3N0cm9rZS13aWR0aDoxLjA7IiB4MT0iMjM5IiB4Mj0iMjM5IiB5MT0iMzYyLjIxODgiIHkyPSIzODIuMjE4OCIvPjxwb2x5Z29uIGZpbGw9IiMxODE4MTgiIHBvaW50cz0iMjM1LDM3Mi4yMTg4LDIzOSwzODIuMjE4OCwyNDMsMzcyLjIxODgsMjM5LDM3Ni4yMTg4IiBzdHlsZT0ic3Ryb2tlOiMxODE4MTg7c3Ryb2tlLXdpZHRoOjEuMDsiLz48bGluZSBzdHlsZT0ic3Ryb2tlOiMxODE4MTg7c3Ryb2tlLXdpZHRoOjEuMDsiIHgxPSIxMzAiIHgyPSIxMzAiIHkxPSI1MDEuOTA2MyIgeTI9IjUyMS45MDYzIi8+PHBvbHlnb24gZmlsbD0iIzE4MTgxOCIgcG9pbnRzPSIxMjYsNTExLjkwNjMsMTMwLDUyMS45MDYzLDEzNCw1MTEuOTA2MywxMzAsNTE1LjkwNjMiIHN0eWxlPSJzdHJva2U6IzE4MTgxODtzdHJva2Utd2lkdGg6MS4wOyIvPjxsaW5lIHN0eWxlPSJzdHJva2U6IzE4MTgxODtzdHJva2Utd2lkdGg6MS4wOyIgeDE9IjE0MCIgeDI9IjEzMCIgeTE9IjQ0Ny4wNjI1IiB5Mj0iNDQ3LjA2MjUiLz48bGluZSBzdHlsZT0ic3Ryb2tlOiMxODE4MTg7c3Ryb2tlLXdpZHRoOjEuMDsiIHgxPSIxMzAiIHgyPSIxMzAiIHkxPSI0NDcuMDYyNSIgeTI9IjQ2OS4wNjI1Ii8+PHBvbHlnb24gZmlsbD0iIzE4MTgxOCIgcG9pbnRzPSIxMjYsNDU5LjA2MjUsMTMwLDQ2OS4wNjI1LDEzNCw0NTkuMDYyNSwxMzAsNDYzLjA2MjUiIHN0eWxlPSJzdHJva2U6IzE4MTgxODtzdHJva2Utd2lkdGg6MS4wOyIvPjxsaW5lIHN0eWxlPSJzdHJva2U6IzE4MTgxODtzdHJva2Utd2lkdGg6MS4wOyIgeDE9IjMzOCIgeDI9IjM0OCIgeTE9IjQ0Ny4wNjI1IiB5Mj0iNDQ3LjA2MjUiLz48bGluZSBzdHlsZT0ic3Ryb2tlOiMxODE4MTg7c3Ryb2tlLXdpZHRoOjEuMDsiIHgxPSIzNDgiIHgyPSIzNDgiIHkxPSI0NDcuMDYyNSIgeTI9IjQ2OS4wNjI1Ii8+PHBvbHlnb24gZmlsbD0iIzE4MTgxOCIgcG9pbnRzPSIzNDQsNDU5LjA2MjUsMzQ4LDQ2OS4wNjI1LDM1Miw0NTkuMDYyNSwzNDgsNDYzLjA2MjUiIHN0eWxlPSJzdHJva2U6IzE4MTgxODtzdHJva2Utd2lkdGg6MS4wOyIvPjxsaW5lIHN0eWxlPSJzdHJva2U6IzE4MTgxODtzdHJva2Utd2lkdGg6MS4wOyIgeDE9IjEzMCIgeDI9IjEzMCIgeTE9IjU1NC43NSIgeTI9IjU3Mi43NSIvPjxsaW5lIHN0eWxlPSJzdHJva2U6IzE4MTgxODtzdHJva2Utd2lkdGg6MS4wOyIgeDE9IjEzMCIgeDI9IjIyNyIgeTE9IjU3Mi43NSIgeTI9IjU3Mi43NSIvPjxwb2x5Z29uIGZpbGw9IiMxODE4MTgiIHBvaW50cz0iMjE3LDU2OC43NSwyMjcsNTcyLjc1LDIxNyw1NzYuNzUsMjIxLDU3Mi43NSIgc3R5bGU9InN0cm9rZTojMTgxODE4O3N0cm9rZS13aWR0aDoxLjA7Ii8+PGxpbmUgc3R5bGU9InN0cm9rZTojMTgxODE4O3N0cm9rZS13aWR0aDoxLjA7IiB4MT0iMzQ4IiB4Mj0iMzQ4IiB5MT0iNTAxLjkwNjMiIHkyPSI1NzIuNzUiLz48bGluZSBzdHlsZT0ic3Ryb2tlOiMxODE4MTg7c3Ryb2tlLXdpZHRoOjEuMDsiIHgxPSIzNDgiIHgyPSIyNTEiIHkxPSI1NzIuNzUiIHkyPSI1NzIuNzUiLz48cG9seWdvbiBmaWxsPSIjMTgxODE4IiBwb2ludHM9IjI2MSw1NjguNzUsMjUxLDU3Mi43NSwyNjEsNTc2Ljc1LDI1Nyw1NzIuNzUiIHN0eWxlPSJzdHJva2U6IzE4MTgxODtzdHJva2Utd2lkdGg6MS4wOyIvPjxsaW5lIHN0eWxlPSJzdHJva2U6IzE4MTgxODtzdHJva2Utd2lkdGg6MS4wOyIgeDE9IjIzOSIgeDI9IjIzOSIgeTE9IjQxNS4wNjI1IiB5Mj0iNDM1LjA2MjUiLz48cG9seWdvbiBmaWxsPSIjMTgxODE4IiBwb2ludHM9IjIzNSw0MjUuMDYyNSwyMzksNDM1LjA2MjUsMjQzLDQyNS4wNjI1LDIzOSw0MjkuMDYyNSIgc3R5bGU9InN0cm9rZTojMTgxODE4O3N0cm9rZS13aWR0aDoxLjA7Ii8+PGxpbmUgc3R5bGU9InN0cm9rZTojMTgxODE4O3N0cm9rZS13aWR0aDoxLjA7IiB4MT0iMjM5IiB4Mj0iMjM5IiB5MT0iNTg0Ljc1IiB5Mj0iNjA0Ljc1Ii8+PHBvbHlnb24gZmlsbD0iIzE4MTgxOCIgcG9pbnRzPSIyMzUsNTk0Ljc1LDIzOSw2MDQuNzUsMjQzLDU5NC43NSwyMzksNTk4Ljc1IiBzdHlsZT0ic3Ryb2tlOiMxODE4MTg7c3Ryb2tlLXdpZHRoOjEuMDsiLz48bGluZSBzdHlsZT0ic3Ryb2tlOiMxODE4MTg7c3Ryb2tlLXdpZHRoOjEuMDsiIHgxPSIzMTYuNSIgeDI9IjIzOSIgeTE9IjI1NC41MzEzIiB5Mj0iMjU0LjUzMTMiLz48bGluZSBzdHlsZT0ic3Ryb2tlOiMxODE4MTg7c3Ryb2tlLXdpZHRoOjEuMDsiIHgxPSIyMzkiIHgyPSIyMzkiIHkxPSIyNTQuNTMxMyIgeTI9IjI3Ni41MzEzIi8+PHBvbHlnb24gZmlsbD0iIzE4MTgxOCIgcG9pbnRzPSIyMzUsMjY2LjUzMTMsMjM5LDI3Ni41MzEzLDI0MywyNjYuNTMxMywyMzksMjcwLjUzMTMiIHN0eWxlPSJzdHJva2U6IzE4MTgxODtzdHJva2Utd2lkdGg6MS4wOyIvPjxsaW5lIHN0eWxlPSJzdHJva2U6IzE4MTgxODtzdHJva2Utd2lkdGg6MS4wOyIgeDE9IjQ3Mi41IiB4Mj0iNTUwIiB5MT0iMjU0LjUzMTMiIHkyPSIyNTQuNTMxMyIvPjxsaW5lIHN0eWxlPSJzdHJva2U6IzE4MTgxODtzdHJva2Utd2lkdGg6MS4wOyIgeDE9IjU1MCIgeDI9IjU1MCIgeTE9IjI1NC41MzEzIiB5Mj0iMjc2LjUzMTMiLz48cG9seWdvbiBmaWxsPSIjMTgxODE4IiBwb2ludHM9IjU0NiwyNjYuNTMxMyw1NTAsMjc2LjUzMTMsNTU0LDI2Ni41MzEzLDU1MCwyNzAuNTMxMyIgc3R5bGU9InN0cm9rZTojMTgxODE4O3N0cm9rZS13aWR0aDoxLjA7Ii8+PGxpbmUgc3R5bGU9InN0cm9rZTojMTgxODE4O3N0cm9rZS13aWR0aDoxLjA7IiB4MT0iMjM5IiB4Mj0iMjM5IiB5MT0iNjM3LjU5MzgiIHkyPSI2NTUuNTkzOCIvPjxsaW5lIHN0eWxlPSJzdHJva2U6IzE4MTgxODtzdHJva2Utd2lkdGg6MS4wOyIgeDE9IjIzOSIgeDI9IjM4Mi41IiB5MT0iNjU1LjU5MzgiIHkyPSI2NTUuNTkzOCIvPjxwb2x5Z29uIGZpbGw9IiMxODE4MTgiIHBvaW50cz0iMzcyLjUsNjUxLjU5MzgsMzgyLjUsNjU1LjU5MzgsMzcyLjUsNjU5LjU5MzgsMzc2LjUsNjU1LjU5MzgiIHN0eWxlPSJzdHJva2U6IzE4MTgxODtzdHJva2Utd2lkdGg6MS4wOyIvPjxsaW5lIHN0eWxlPSJzdHJva2U6IzE4MTgxODtzdHJva2Utd2lkdGg6MS4wOyIgeDE9IjU1MCIgeDI9IjU1MCIgeTE9IjMwOS4zNzUiIHkyPSI2NTUuNTkzOCIvPjxsaW5lIHN0eWxlPSJzdHJva2U6IzE4MTgxODtzdHJva2Utd2lkdGg6MS4wOyIgeDE9IjU1MCIgeDI9IjQwNi41IiB5MT0iNjU1LjU5MzgiIHkyPSI2NTUuNTkzOCIvPjxwb2x5Z29uIGZpbGw9IiMxODE4MTgiIHBvaW50cz0iNDE2LjUsNjUxLjU5MzgsNDA2LjUsNjU1LjU5MzgsNDE2LjUsNjU5LjU5MzgsNDEyLjUsNjU1LjU5MzgiIHN0eWxlPSJzdHJva2U6IzE4MTgxODtzdHJva2Utd2lkdGg6MS4wOyIvPjxsaW5lIHN0eWxlPSJzdHJva2U6IzE4MTgxODtzdHJva2Utd2lkdGg6MS4wOyIgeDE9IjM5NC41IiB4Mj0iMzk0LjUiIHkxPSIyMjIuNTMxMyIgeTI9IjI0Mi41MzEzIi8+PHBvbHlnb24gZmlsbD0iIzE4MTgxOCIgcG9pbnRzPSIzOTAuNSwyMzIuNTMxMywzOTQuNSwyNDIuNTMxMywzOTguNSwyMzIuNTMxMywzOTQuNSwyMzYuNTMxMyIgc3R5bGU9InN0cm9rZTojMTgxODE4O3N0cm9rZS13aWR0aDoxLjA7Ii8+PGxpbmUgc3R5bGU9InN0cm9rZTojMTgxODE4O3N0cm9rZS13aWR0aDoxLjA7IiB4MT0iNTQzLjc1IiB4Mj0iMzk0LjUiIHkxPSIxNjcuNjg3NSIgeTI9IjE2Ny42ODc1Ii8+PGxpbmUgc3R5bGU9InN0cm9rZTojMTgxODE4O3N0cm9rZS13aWR0aDoxLjA7IiB4MT0iMzk0LjUiIHgyPSIzOTQuNSIgeTE9IjE2Ny42ODc1IiB5Mj0iMTg5LjY4NzUiLz48cG9seWdvbiBmaWxsPSIjMTgxODE4IiBwb2ludHM9IjM5MC41LDE3OS42ODc1LDM5NC41LDE4OS42ODc1LDM5OC41LDE3OS42ODc1LDM5NC41LDE4My42ODc1IiBzdHlsZT0ic3Ryb2tlOiMxODE4MTg7c3Ryb2tlLXdpZHRoOjEuMDsiLz48bGluZSBzdHlsZT0ic3Ryb2tlOiMxODE4MTg7c3Ryb2tlLXdpZHRoOjEuMDsiIHgxPSI2NTEuNzUiIHgyPSI4MDEiIHkxPSIxNjcuNjg3NSIgeTI9IjE2Ny42ODc1Ii8+PGxpbmUgc3R5bGU9InN0cm9rZTojMTgxODE4O3N0cm9rZS13aWR0aDoxLjA7IiB4MT0iODAxIiB4Mj0iODAxIiB5MT0iMTY3LjY4NzUiIHkyPSIxODkuNjg3NSIvPjxwb2x5Z29uIGZpbGw9IiMxODE4MTgiIHBvaW50cz0iNzk3LDE3OS42ODc1LDgwMSwxODkuNjg3NSw4MDUsMTc5LjY4NzUsODAxLDE4My42ODc1IiBzdHlsZT0ic3Ryb2tlOiMxODE4MTg7c3Ryb2tlLXdpZHRoOjEuMDsiLz48bGluZSBzdHlsZT0ic3Ryb2tlOiMxODE4MTg7c3Ryb2tlLXdpZHRoOjEuMDsiIHgxPSIzOTQuNSIgeDI9IjM5NC41IiB5MT0iNjY3LjU5MzgiIHkyPSI2ODUuNTkzOCIvPjxsaW5lIHN0eWxlPSJzdHJva2U6IzE4MTgxODtzdHJva2Utd2lkdGg6MS4wOyIgeDE9IjM5NC41IiB4Mj0iNTg1Ljc1IiB5MT0iNjg1LjU5MzgiIHkyPSI2ODUuNTkzOCIvPjxwb2x5Z29uIGZpbGw9IiMxODE4MTgiIHBvaW50cz0iNTc1Ljc1LDY4MS41OTM4LDU4NS43NSw2ODUuNTkzOCw1NzUuNzUsNjg5LjU5MzgsNTc5Ljc1LDY4NS41OTM4IiBzdHlsZT0ic3Ryb2tlOiMxODE4MTg7c3Ryb2tlLXdpZHRoOjEuMDsiLz48bGluZSBzdHlsZT0ic3Ryb2tlOiMxODE4MTg7c3Ryb2tlLXdpZHRoOjEuMDsiIHgxPSI4MDEiIHgyPSI4MDEiIHkxPSIyMjIuNTMxMyIgeTI9IjY4NS41OTM4Ii8+PGxpbmUgc3R5bGU9InN0cm9rZTojMTgxODE4O3N0cm9rZS13aWR0aDoxLjA7IiB4MT0iODAxIiB4Mj0iNjA5Ljc1IiB5MT0iNjg1LjU5MzgiIHkyPSI2ODUuNTkzOCIvPjxwb2x5Z29uIGZpbGw9IiMxODE4MTgiIHBvaW50cz0iNjE5Ljc1LDY4MS41OTM4LDYwOS43NSw2ODUuNTkzOCw2MTkuNzUsNjg5LjU5MzgsNjE1Ljc1LDY4NS41OTM4IiBzdHlsZT0ic3Ryb2tlOiMxODE4MTg7c3Ryb2tlLXdpZHRoOjEuMDsiLz48bGluZSBzdHlsZT0ic3Ryb2tlOiMxODE4MTg7c3Ryb2tlLXdpZHRoOjEuMDsiIHgxPSI1OTcuNzUiIHgyPSI1OTcuNzUiIHkxPSIxMzUuNjg3NSIgeTI9IjE1NS42ODc1Ii8+PHBvbHlnb24gZmlsbD0iIzE4MTgxOCIgcG9pbnRzPSI1OTMuNzUsMTQ1LjY4NzUsNTk3Ljc1LDE1NS42ODc1LDYwMS43NSwxNDUuNjg3NSw1OTcuNzUsMTQ5LjY4NzUiIHN0eWxlPSJzdHJva2U6IzE4MTgxODtzdHJva2Utd2lkdGg6MS4wOyIvPjxsaW5lIHN0eWxlPSJzdHJva2U6IzE4MTgxODtzdHJva2Utd2lkdGg6MS4wOyIgeDE9IjU5Ny43NSIgeDI9IjU5Ny43NSIgeTE9IjY5Ny41OTM4IiB5Mj0iNzE3LjU5MzgiLz48cG9seWdvbiBmaWxsPSIjMTgxODE4IiBwb2ludHM9IjU5My43NSw3MDcuNTkzOCw1OTcuNzUsNzE3LjU5MzgsNjAxLjc1LDcwNy41OTM4LDU5Ny43NSw3MTEuNTkzOCIgc3R5bGU9InN0cm9rZTojMTgxODE4O3N0cm9rZS13aWR0aDoxLjA7Ii8+PCEtLVNSQz1bVFA5REp5Q20zOFJsLUhNTWswbzkycnB1czA2RFJhWFM0NDkydWZlckJXbGh1aVhzMW5GWWx2Q2J2TUNUd281SXVfVnIteUk5QjdzOGJrcUF2aFBVbFoxcm1MTks0aUZIUjNReGNMUDZWWElzTGhfc2tlNEYwLWN4NkhlY1B6TjVoMmVyT2VWU3h2ek12ekZCUVR3X2ZRM3RUZUxHS1NTVXNObVE4c2ZQWlJidzRrSUtLUUM4MlpvcWZDeUhNVTREdi0yMzhaVXNuZDZsd3M5QnJXYXVndFBpWjZ6V1Q1Vi1PNnJSeHd3RkdIU09PQkgxRVN4SG5JVWUwaWNoNDFhUlAwbWZSdm01VVRhc2NaMy1oSHZnYzlsLU9hUWM3WnRmVWd2X1AzTWpPZ1ZPR21uYVpuWklzNGZmUldLVEs4MWtveHI3LXFGeUpQc0Vkdkx2TERraEliUTdZaE5ZMFZaVmdObngxRHd5QmUwcEhhaFZXZW50elBDT3Nxcjlpa3dyNHJyWEkzd2JXSFhSR0hXNTZpSERsU0pNUmVSWXU3blpUZmQ0aGI1RTBEeVpTR2Y4M3FhTWJsbDE1VWotbmpLemdNendGY2hJbVZCYnhPLWw5RXVzRTZHa2JyR1N3UkxJXzA4MF0tLT48L2c+PC9zdmc+;" parent="M8zQa_Ylqo-KHK09IEU5-127" vertex="1">
            <mxGeometry x="1750" y="620" width="533.86" height="440" as="geometry" />
          </mxCell>
        </UserObject>
        <mxCell id="M8zQa_Ylqo-KHK09IEU5-27" value="Use" style="endArrow=open;endSize=12;dashed=1;html=1;labelBackgroundColor=#FFFFFF;align=center;exitX=1;exitY=0.75;exitDx=0;exitDy=0;" parent="M8zQa_Ylqo-KHK09IEU5-127" source="M8zQa_Ylqo-KHK09IEU5-6" target="M8zQa_Ylqo-KHK09IEU5-18" edge="1">
          <mxGeometry width="160" relative="1" as="geometry">
            <mxPoint x="1180" y="350" as="sourcePoint" />
            <mxPoint x="1340" y="350" as="targetPoint" />
          </mxGeometry>
        </mxCell>
        <mxCell id="M8zQa_Ylqo-KHK09IEU5-28" value="Use" style="endArrow=open;endSize=12;dashed=1;html=1;labelBackgroundColor=#FFFFFF;align=center;" parent="M8zQa_Ylqo-KHK09IEU5-127" source="M8zQa_Ylqo-KHK09IEU5-4" target="M8zQa_Ylqo-KHK09IEU5-14" edge="1">
          <mxGeometry width="160" relative="1" as="geometry">
            <mxPoint x="1222.5727586206895" y="243.1800000000003" as="sourcePoint" />
            <mxPoint x="1348.8065517241375" y="540" as="targetPoint" />
          </mxGeometry>
        </mxCell>
        <mxCell id="M8zQa_Ylqo-KHK09IEU5-29" value="" style="group" parent="1" vertex="1" connectable="0">
          <mxGeometry x="-1400" y="-990" width="2410" height="3240" as="geometry" />
        </mxCell>
        <mxCell id="M8zQa_Ylqo-KHK09IEU5-128" value="" style="group" parent="M8zQa_Ylqo-KHK09IEU5-29" vertex="1" connectable="0">
          <mxGeometry width="2400" height="1870.0000000000005" as="geometry" />
        </mxCell>
        <mxCell id="M8zQa_Ylqo-KHK09IEU5-30" value="" style="shape=folder;fontStyle=1;spacingTop=10;tabWidth=280;tabHeight=80;tabPosition=left;html=1;" parent="M8zQa_Ylqo-KHK09IEU5-128" vertex="1">
          <mxGeometry width="2400" height="1870.0000000000005" as="geometry" />
        </mxCell>
        <mxCell id="M8zQa_Ylqo-KHK09IEU5-31" value="&lt;p style=&quot;margin: 0px ; margin-top: 4px ; text-align: center&quot;&gt;&lt;b&gt;IDisplayService&lt;/b&gt;&lt;br&gt;&lt;/p&gt;&lt;hr size=&quot;1&quot;&gt;&lt;p style=&quot;margin: 0px ; margin-left: 4px&quot;&gt;&lt;br&gt;&lt;/p&gt;&lt;p style=&quot;margin: 0px ; margin-left: 4px&quot;&gt;&lt;br&gt;&lt;/p&gt;" style="verticalAlign=top;align=left;overflow=fill;fontSize=12;fontFamily=Helvetica;html=1;" parent="M8zQa_Ylqo-KHK09IEU5-128" vertex="1">
          <mxGeometry x="390" y="499.9998937246962" width="420" height="89.90384615384615" as="geometry" />
        </mxCell>
        <mxCell id="M8zQa_Ylqo-KHK09IEU5-32" value="&lt;p style=&quot;margin: 0px ; margin-top: 4px ; text-align: center&quot;&gt;&lt;b&gt;DisplayController&lt;/b&gt;&lt;br&gt;&lt;/p&gt;&lt;hr size=&quot;1&quot;&gt;&lt;p style=&quot;margin-top: 0px ; margin-bottom: 0px ; margin-left: 4px&quot;&gt;+renderPlot&lt;/p&gt;&lt;p style=&quot;margin-top: 0px ; margin-bottom: 0px ; margin-left: 4px&quot;&gt;+handleInteraction&lt;/p&gt;&lt;p style=&quot;margin-top: 0px ; margin-bottom: 0px ; margin-left: 4px&quot;&gt;+updateSetting&lt;/p&gt;&lt;p style=&quot;margin-top: 0px ; margin-bottom: 0px ; margin-left: 4px&quot;&gt;+notifyMessage&lt;/p&gt;&lt;p style=&quot;margin-top: 0px ; margin-bottom: 0px ; margin-left: 4px&quot;&gt;&lt;br&gt;&lt;/p&gt;&lt;p style=&quot;margin-top: 0px ; margin-bottom: 0px ; margin-left: 4px&quot;&gt;&lt;br&gt;&lt;/p&gt;&lt;p style=&quot;margin: 0px ; margin-left: 4px&quot;&gt;&lt;br&gt;&lt;/p&gt;" style="verticalAlign=top;align=left;overflow=fill;fontSize=12;fontFamily=Helvetica;html=1;" parent="M8zQa_Ylqo-KHK09IEU5-128" vertex="1">
          <mxGeometry x="390" y="299.99631578947367" width="420" height="139.11815789473684" as="geometry" />
        </mxCell>
        <mxCell id="M8zQa_Ylqo-KHK09IEU5-33" value="Use" style="endArrow=open;endSize=12;dashed=1;html=1;entryX=0.5;entryY=0;entryDx=0;entryDy=0;" parent="M8zQa_Ylqo-KHK09IEU5-128" source="M8zQa_Ylqo-KHK09IEU5-32" target="M8zQa_Ylqo-KHK09IEU5-31" edge="1">
          <mxGeometry x="1800.0014876033058" y="-1436.311418881119" width="158.67768595041318" as="geometry">
            <mxPoint x="3019.836198347107" y="-682.2841461538462" as="sourcePoint" />
            <mxPoint x="3178.5138842975202" y="-682.2841461538462" as="targetPoint" />
          </mxGeometry>
        </mxCell>
        <mxCell id="M8zQa_Ylqo-KHK09IEU5-34" value="&lt;font style=&quot;font-size: 23px&quot;&gt;AppServices Layer&lt;br&gt;&lt;/font&gt;" style="text;html=1;strokeColor=none;fillColor=none;align=center;verticalAlign=middle;whiteSpace=wrap;rounded=0;" parent="M8zQa_Ylqo-KHK09IEU5-128" vertex="1">
          <mxGeometry width="280" height="80" as="geometry" />
        </mxCell>
        <mxCell id="M8zQa_Ylqo-KHK09IEU5-35" value="&lt;font style=&quot;font-size: 23px&quot;&gt;MVC and Microservice(SOA) architecture&lt;br&gt;&lt;/font&gt;" style="text;html=1;strokeColor=none;fillColor=none;align=center;verticalAlign=middle;whiteSpace=wrap;rounded=0;" parent="M8zQa_Ylqo-KHK09IEU5-128" vertex="1">
          <mxGeometry x="20" y="160.00076923076927" width="320" height="161.82692307692307" as="geometry" />
        </mxCell>
        <mxCell id="M8zQa_Ylqo-KHK09IEU5-36" value="" style="endArrow=block;dashed=1;endFill=0;endSize=12;html=1;" parent="M8zQa_Ylqo-KHK09IEU5-128" source="M8zQa_Ylqo-KHK09IEU5-37" target="M8zQa_Ylqo-KHK09IEU5-31" edge="1">
          <mxGeometry x="1507.8514876033057" y="-1232.049589160839" width="158.67768595041318" as="geometry">
            <mxPoint x="358.54166666666697" y="952.9807692307688" as="sourcePoint" />
            <mxPoint x="485.95066115702423" y="1024.9084527972034" as="targetPoint" />
          </mxGeometry>
        </mxCell>
        <mxCell id="M8zQa_Ylqo-KHK09IEU5-37" value="&lt;p style=&quot;margin-top: 4px ; margin-bottom: 0px ; text-align: center&quot;&gt;&lt;b&gt;VisualizationSettingService&lt;/b&gt;&lt;br&gt;&lt;/p&gt;&lt;hr size=&quot;1&quot;&gt;&lt;p style=&quot;margin-top: 0px ; margin-bottom: 0px ; margin-left: 4px&quot;&gt;&lt;br&gt;&lt;/p&gt;&lt;p style=&quot;margin-top: 0px ; margin-bottom: 0px ; margin-left: 4px&quot;&gt;&lt;br&gt;&lt;/p&gt;" style="verticalAlign=top;align=left;overflow=fill;fontSize=12;fontFamily=Helvetica;html=1;" parent="M8zQa_Ylqo-KHK09IEU5-128" vertex="1">
          <mxGeometry x="340" y="710" width="198.35" height="110" as="geometry" />
        </mxCell>
        <mxCell id="M8zQa_Ylqo-KHK09IEU5-38" value="&lt;p style=&quot;margin-top: 4px ; margin-bottom: 0px ; text-align: center&quot;&gt;&lt;b&gt;DataProcessService&lt;/b&gt;&lt;br&gt;&lt;/p&gt;&lt;hr size=&quot;1&quot;&gt;&lt;p style=&quot;margin-top: 0px ; margin-bottom: 0px ; margin-left: 4px&quot;&gt;&lt;br&gt;&lt;/p&gt;&lt;p style=&quot;margin-top: 0px ; margin-bottom: 0px ; margin-left: 4px&quot;&gt;&lt;br&gt;&lt;/p&gt;" style="verticalAlign=top;align=left;overflow=fill;fontSize=12;fontFamily=Helvetica;html=1;" parent="M8zQa_Ylqo-KHK09IEU5-128" vertex="1">
          <mxGeometry x="100" y="573.33" width="198.35" height="114.8" as="geometry" />
        </mxCell>
        <mxCell id="M8zQa_Ylqo-KHK09IEU5-39" value="&lt;p style=&quot;margin-top: 4px ; margin-bottom: 0px ; text-align: center&quot;&gt;&lt;b&gt;InteractionHandleService&lt;/b&gt;&lt;br&gt;&lt;/p&gt;&lt;hr size=&quot;1&quot;&gt;&lt;p style=&quot;margin-top: 0px ; margin-bottom: 0px ; margin-left: 4px&quot;&gt;&lt;br&gt;&lt;/p&gt;&lt;p style=&quot;margin-top: 0px ; margin-bottom: 0px ; margin-left: 4px&quot;&gt;&lt;br&gt;&lt;/p&gt;" style="verticalAlign=top;align=left;overflow=fill;fontSize=12;fontFamily=Helvetica;html=1;" parent="M8zQa_Ylqo-KHK09IEU5-128" vertex="1">
          <mxGeometry x="643.3" y="710" width="198.35" height="110" as="geometry" />
        </mxCell>
        <mxCell id="M8zQa_Ylqo-KHK09IEU5-40" value="&lt;p style=&quot;margin-top: 4px ; margin-bottom: 0px ; text-align: center&quot;&gt;&lt;b&gt;NotificationService&lt;/b&gt;&lt;br&gt;&lt;/p&gt;&lt;hr size=&quot;1&quot;&gt;&lt;p style=&quot;margin-top: 0px ; margin-bottom: 0px ; margin-left: 4px&quot;&gt;&lt;br&gt;&lt;/p&gt;&lt;p style=&quot;margin-top: 0px ; margin-bottom: 0px ; margin-left: 4px&quot;&gt;&lt;br&gt;&lt;/p&gt;" style="verticalAlign=top;align=left;overflow=fill;fontSize=12;fontFamily=Helvetica;html=1;" parent="M8zQa_Ylqo-KHK09IEU5-128" vertex="1">
          <mxGeometry x="900" y="573.33" width="198.35" height="116.67" as="geometry" />
        </mxCell>
        <mxCell id="M8zQa_Ylqo-KHK09IEU5-41" value="" style="endArrow=block;dashed=1;endFill=0;endSize=12;html=1;" parent="M8zQa_Ylqo-KHK09IEU5-128" source="M8zQa_Ylqo-KHK09IEU5-39" target="M8zQa_Ylqo-KHK09IEU5-31" edge="1">
          <mxGeometry x="2917.851487603306" y="-998.2995891608392" width="158.67768595041318" as="geometry">
            <mxPoint x="457.24772732307883" y="1024.9042919580415" as="sourcePoint" />
            <mxPoint x="579.4496060604383" y="845.0961538461539" as="targetPoint" />
          </mxGeometry>
        </mxCell>
        <mxCell id="M8zQa_Ylqo-KHK09IEU5-42" value="" style="endArrow=block;dashed=1;endFill=0;endSize=12;html=1;" parent="M8zQa_Ylqo-KHK09IEU5-128" source="M8zQa_Ylqo-KHK09IEU5-40" target="M8zQa_Ylqo-KHK09IEU5-31" edge="1">
          <mxGeometry x="4327.851487603306" y="-764.5495891608392" width="158.67768595041318" as="geometry">
            <mxPoint x="677.8286718828808" y="1024.9042919580415" as="sourcePoint" />
            <mxPoint x="623.5657074693877" y="845.0961538461539" as="targetPoint" />
          </mxGeometry>
        </mxCell>
        <mxCell id="M8zQa_Ylqo-KHK09IEU5-43" value="" style="endArrow=block;dashed=1;endFill=0;endSize=12;html=1;" parent="M8zQa_Ylqo-KHK09IEU5-128" source="M8zQa_Ylqo-KHK09IEU5-38" target="M8zQa_Ylqo-KHK09IEU5-31" edge="1">
          <mxGeometry x="5737.851487603306" y="-530.7995891608391" width="158.67768595041318" as="geometry">
            <mxPoint x="860" y="911.2704568736195" as="sourcePoint" />
            <mxPoint x="711.1280699721965" y="845.0961538461539" as="targetPoint" />
          </mxGeometry>
        </mxCell>
        <mxCell id="M8zQa_Ylqo-KHK09IEU5-44" value="&lt;p style=&quot;margin: 0px ; margin-top: 4px ; text-align: center&quot;&gt;&lt;b&gt;IComputationService&lt;/b&gt;&lt;br&gt;&lt;/p&gt;&lt;hr size=&quot;1&quot;&gt;&lt;p style=&quot;margin: 0px ; margin-left: 4px&quot;&gt;&lt;br&gt;&lt;/p&gt;&lt;p style=&quot;margin: 0px ; margin-left: 4px&quot;&gt;&lt;br&gt;&lt;/p&gt;" style="verticalAlign=top;align=left;overflow=fill;fontSize=12;fontFamily=Helvetica;html=1;" parent="M8zQa_Ylqo-KHK09IEU5-128" vertex="1">
          <mxGeometry x="1510" y="499.9998937246962" width="420" height="89.90384615384615" as="geometry" />
        </mxCell>
        <mxCell id="M8zQa_Ylqo-KHK09IEU5-45" value="&lt;p style=&quot;margin: 0px ; margin-top: 4px ; text-align: center&quot;&gt;&lt;b&gt;ComputaionController&lt;/b&gt;&lt;br&gt;&lt;/p&gt;&lt;hr size=&quot;1&quot;&gt;&lt;p style=&quot;margin-top: 0px ; margin-bottom: 0px ; margin-left: 4px&quot;&gt;+executeComuptation&lt;/p&gt;&lt;p style=&quot;margin-top: 0px ; margin-bottom: 0px ; margin-left: 4px&quot;&gt;+getResults&lt;/p&gt;&lt;p style=&quot;margin-top: 0px ; margin-bottom: 0px ; margin-left: 4px&quot;&gt;+manageError&lt;/p&gt;&lt;p style=&quot;margin-top: 0px ; margin-bottom: 0px ; margin-left: 4px&quot;&gt;+manageComputationState&lt;/p&gt;&lt;p style=&quot;margin-top: 0px ; margin-bottom: 0px ; margin-left: 4px&quot;&gt;+handleTasks&lt;/p&gt;&lt;p style=&quot;margin-top: 0px ; margin-bottom: 0px ; margin-left: 4px&quot;&gt;&lt;br&gt;&lt;/p&gt;&lt;p style=&quot;margin-top: 0px ; margin-bottom: 0px ; margin-left: 4px&quot;&gt;&lt;br&gt;&lt;/p&gt;&lt;p style=&quot;margin: 0px ; margin-left: 4px&quot;&gt;&lt;br&gt;&lt;/p&gt;" style="verticalAlign=top;align=left;overflow=fill;fontSize=12;fontFamily=Helvetica;html=1;" parent="M8zQa_Ylqo-KHK09IEU5-128" vertex="1">
          <mxGeometry x="1510" y="289.99631578947367" width="420" height="135.32894736842107" as="geometry" />
        </mxCell>
        <mxCell id="M8zQa_Ylqo-KHK09IEU5-46" value="Use" style="endArrow=open;endSize=12;dashed=1;html=1;entryX=0.5;entryY=0;entryDx=0;entryDy=0;" parent="M8zQa_Ylqo-KHK09IEU5-128" source="M8zQa_Ylqo-KHK09IEU5-45" target="M8zQa_Ylqo-KHK09IEU5-44" edge="1">
          <mxGeometry x="4320.001487603306" y="-1220.5421881118882" width="158.67768595041318" as="geometry">
            <mxPoint x="5539.836198347107" y="-466.5149153846154" as="sourcePoint" />
            <mxPoint x="5698.51388429752" y="-466.5149153846154" as="targetPoint" />
          </mxGeometry>
        </mxCell>
        <mxCell id="M8zQa_Ylqo-KHK09IEU5-47" value="" style="endArrow=block;dashed=1;endFill=0;endSize=12;html=1;" parent="M8zQa_Ylqo-KHK09IEU5-128" source="M8zQa_Ylqo-KHK09IEU5-48" target="M8zQa_Ylqo-KHK09IEU5-44" edge="1">
          <mxGeometry x="4027.851487603306" y="-1016.2803583916083" width="158.67768595041318" as="geometry">
            <mxPoint x="2878.541666666667" y="1168.7499999999998" as="sourcePoint" />
            <mxPoint x="3005.950661157024" y="1240.677683566434" as="targetPoint" />
          </mxGeometry>
        </mxCell>
        <mxCell id="M8zQa_Ylqo-KHK09IEU5-48" value="&lt;p style=&quot;margin-top: 4px ; margin-bottom: 0px ; text-align: center&quot;&gt;&lt;b&gt;ResultsRetrievalService&lt;/b&gt;&lt;br&gt;&lt;/p&gt;&lt;hr size=&quot;1&quot;&gt;&lt;p style=&quot;margin-top: 0px ; margin-bottom: 0px ; margin-left: 4px&quot;&gt;&lt;br&gt;&lt;/p&gt;&lt;p style=&quot;margin-top: 0px ; margin-bottom: 0px ; margin-left: 4px&quot;&gt;&lt;br&gt;&lt;/p&gt;" style="verticalAlign=top;align=left;overflow=fill;fontSize=12;fontFamily=Helvetica;html=1;" parent="M8zQa_Ylqo-KHK09IEU5-128" vertex="1">
          <mxGeometry x="1311.65" y="710" width="198.35" height="110" as="geometry" />
        </mxCell>
        <mxCell id="M8zQa_Ylqo-KHK09IEU5-49" value="&lt;p style=&quot;margin-top: 4px ; margin-bottom: 0px ; text-align: center&quot;&gt;&lt;b&gt;ComputationExecutionService&lt;/b&gt;&lt;br&gt;&lt;/p&gt;&lt;hr size=&quot;1&quot;&gt;&lt;p style=&quot;margin-top: 0px ; margin-bottom: 0px ; margin-left: 4px&quot;&gt;&lt;br&gt;&lt;/p&gt;&lt;p style=&quot;margin-top: 0px ; margin-bottom: 0px ; margin-left: 4px&quot;&gt;&lt;br&gt;&lt;/p&gt;" style="verticalAlign=top;align=left;overflow=fill;fontSize=12;fontFamily=Helvetica;html=1;" parent="M8zQa_Ylqo-KHK09IEU5-128" vertex="1">
          <mxGeometry x="1200" y="573.33" width="198.35" height="116.67" as="geometry" />
        </mxCell>
        <mxCell id="M8zQa_Ylqo-KHK09IEU5-50" value="&lt;p style=&quot;margin-top: 4px ; margin-bottom: 0px ; text-align: center&quot;&gt;&lt;b&gt;ErrorHandlingService&lt;/b&gt;&lt;br&gt;&lt;/p&gt;&lt;hr size=&quot;1&quot;&gt;&lt;p style=&quot;margin-top: 0px ; margin-bottom: 0px ; margin-left: 4px&quot;&gt;&lt;br&gt;&lt;/p&gt;&lt;p style=&quot;margin-top: 0px ; margin-bottom: 0px ; margin-left: 4px&quot;&gt;&lt;br&gt;&lt;/p&gt;" style="verticalAlign=top;align=left;overflow=fill;fontSize=12;fontFamily=Helvetica;html=1;" parent="M8zQa_Ylqo-KHK09IEU5-128" vertex="1">
          <mxGeometry x="1620.82" y="710" width="198.35" height="110" as="geometry" />
        </mxCell>
        <mxCell id="M8zQa_Ylqo-KHK09IEU5-51" value="&lt;p style=&quot;margin-top: 4px ; margin-bottom: 0px ; text-align: center&quot;&gt;&lt;b&gt;TaskQueuingService&lt;/b&gt;&lt;br&gt;&lt;/p&gt;&lt;hr size=&quot;1&quot;&gt;&lt;p style=&quot;margin-top: 0px ; margin-bottom: 0px ; margin-left: 4px&quot;&gt;&lt;br&gt;&lt;/p&gt;&lt;p style=&quot;margin-top: 0px ; margin-bottom: 0px ; margin-left: 4px&quot;&gt;&lt;br&gt;&lt;/p&gt;" style="verticalAlign=top;align=left;overflow=fill;fontSize=12;fontFamily=Helvetica;html=1;" parent="M8zQa_Ylqo-KHK09IEU5-128" vertex="1">
          <mxGeometry x="2080" y="580" width="198.35" height="110" as="geometry" />
        </mxCell>
        <mxCell id="M8zQa_Ylqo-KHK09IEU5-52" value="" style="endArrow=block;dashed=1;endFill=0;endSize=12;html=1;" parent="M8zQa_Ylqo-KHK09IEU5-128" source="M8zQa_Ylqo-KHK09IEU5-50" target="M8zQa_Ylqo-KHK09IEU5-44" edge="1">
          <mxGeometry x="5437.851487603306" y="-782.5303583916083" width="158.67768595041318" as="geometry">
            <mxPoint x="2977.247727323079" y="1240.6735227272725" as="sourcePoint" />
            <mxPoint x="3099.4496060604383" y="1060.8653846153848" as="targetPoint" />
          </mxGeometry>
        </mxCell>
        <mxCell id="M8zQa_Ylqo-KHK09IEU5-53" value="" style="endArrow=block;dashed=1;endFill=0;endSize=12;html=1;" parent="M8zQa_Ylqo-KHK09IEU5-128" source="M8zQa_Ylqo-KHK09IEU5-51" target="M8zQa_Ylqo-KHK09IEU5-44" edge="1">
          <mxGeometry x="6847.851487603306" y="-548.7803583916084" width="158.67768595041318" as="geometry">
            <mxPoint x="3197.828671882881" y="1240.6735227272725" as="sourcePoint" />
            <mxPoint x="3143.5657074693877" y="1060.8653846153848" as="targetPoint" />
          </mxGeometry>
        </mxCell>
        <mxCell id="M8zQa_Ylqo-KHK09IEU5-54" value="" style="endArrow=block;dashed=1;endFill=0;endSize=12;html=1;" parent="M8zQa_Ylqo-KHK09IEU5-128" source="M8zQa_Ylqo-KHK09IEU5-49" target="M8zQa_Ylqo-KHK09IEU5-44" edge="1">
          <mxGeometry x="8257.851487603306" y="-315.03035839160833" width="158.67768595041318" as="geometry">
            <mxPoint x="3380" y="1127.0396876428504" as="sourcePoint" />
            <mxPoint x="3231.1280699721965" y="1060.8653846153848" as="targetPoint" />
          </mxGeometry>
        </mxCell>
        <mxCell id="M8zQa_Ylqo-KHK09IEU5-55" value="&lt;p style=&quot;margin-top: 4px ; margin-bottom: 0px ; text-align: center&quot;&gt;&lt;b&gt;StateManagementService&lt;/b&gt;&lt;br&gt;&lt;/p&gt;&lt;hr size=&quot;1&quot;&gt;&lt;p style=&quot;margin-top: 0px ; margin-bottom: 0px ; margin-left: 4px&quot;&gt;&lt;br&gt;&lt;/p&gt;&lt;p style=&quot;margin-top: 0px ; margin-bottom: 0px ; margin-left: 4px&quot;&gt;&lt;br&gt;&lt;/p&gt;" style="verticalAlign=top;align=left;overflow=fill;fontSize=12;fontFamily=Helvetica;html=1;" parent="M8zQa_Ylqo-KHK09IEU5-128" vertex="1">
          <mxGeometry x="1950" y="710" width="198.35" height="110" as="geometry" />
        </mxCell>
        <mxCell id="M8zQa_Ylqo-KHK09IEU5-56" value="" style="endArrow=block;dashed=1;endFill=0;endSize=12;html=1;" parent="M8zQa_Ylqo-KHK09IEU5-128" source="M8zQa_Ylqo-KHK09IEU5-55" target="M8zQa_Ylqo-KHK09IEU5-44" edge="1">
          <mxGeometry x="8257.851487603306" y="-315.03035839160833" width="158.67768595041318" as="geometry">
            <mxPoint x="2080" y="891.213969735112" as="sourcePoint" />
            <mxPoint x="1902.7596153846157" y="845.0961538461535" as="targetPoint" />
          </mxGeometry>
        </mxCell>
        <mxCell id="M8zQa_Ylqo-KHK09IEU5-57" value="&lt;p style=&quot;margin: 0px ; margin-top: 6px ; text-align: center&quot;&gt;&lt;b&gt;Services&lt;/b&gt;&lt;/p&gt;&lt;hr&gt;&lt;p style=&quot;margin: 0px ; margin-left: 8px&quot;&gt;+ Display&lt;br&gt;+ Computation&lt;/p&gt;&lt;p style=&quot;margin: 0px ; margin-left: 8px&quot;&gt;+ FileManagement&lt;/p&gt;&lt;p style=&quot;margin: 0px ; margin-left: 8px&quot;&gt;+ LayoutState&lt;br&gt;&lt;/p&gt;&lt;p style=&quot;margin: 0px ; margin-left: 8px&quot;&gt;+ Customize functionality&lt;/p&gt;" style="align=left;overflow=fill;html=1;dropTarget=0;" parent="M8zQa_Ylqo-KHK09IEU5-128" vertex="1">
          <mxGeometry x="1040" y="110.72" width="190" height="129.28" as="geometry" />
        </mxCell>
        <mxCell id="M8zQa_Ylqo-KHK09IEU5-58" value="" style="shape=component;jettyWidth=8;jettyHeight=4;" parent="M8zQa_Ylqo-KHK09IEU5-57" vertex="1">
          <mxGeometry x="1" width="20" height="20" relative="1" as="geometry">
            <mxPoint x="-24" y="4" as="offset" />
          </mxGeometry>
        </mxCell>
        <mxCell id="M8zQa_Ylqo-KHK09IEU5-59" value="&lt;p style=&quot;margin: 0px ; margin-top: 4px ; text-align: center&quot;&gt;&lt;b&gt;IFileManagementService&lt;/b&gt;&lt;br&gt;&lt;/p&gt;&lt;hr size=&quot;1&quot;&gt;&lt;p style=&quot;margin: 0px ; margin-left: 4px&quot;&gt;&lt;br&gt;&lt;/p&gt;&lt;p style=&quot;margin: 0px ; margin-left: 4px&quot;&gt;&lt;br&gt;&lt;/p&gt;" style="verticalAlign=top;align=left;overflow=fill;fontSize=12;fontFamily=Helvetica;html=1;" parent="M8zQa_Ylqo-KHK09IEU5-128" vertex="1">
          <mxGeometry x="390" y="1060.0977884615381" width="420" height="89.90384615384615" as="geometry" />
        </mxCell>
        <mxCell id="M8zQa_Ylqo-KHK09IEU5-60" value="&lt;p style=&quot;margin: 0px ; margin-top: 4px ; text-align: center&quot;&gt;&lt;b&gt;FileManagementController&lt;/b&gt;&lt;br&gt;&lt;/p&gt;&lt;hr size=&quot;1&quot;&gt;&lt;p style=&quot;margin-top: 0px ; margin-bottom: 0px ; margin-left: 4px&quot;&gt;+loadFile&lt;/p&gt;&lt;p style=&quot;margin-top: 0px ; margin-bottom: 0px ; margin-left: 4px&quot;&gt;+saveFile&lt;/p&gt;&lt;p style=&quot;margin-top: 0px ; margin-bottom: 0px ; margin-left: 4px&quot;&gt;+manageStorage&lt;/p&gt;&lt;p style=&quot;margin-top: 0px ; margin-bottom: 0px ; margin-left: 4px&quot;&gt;+manageFileVersion&lt;/p&gt;&lt;p style=&quot;margin-top: 0px ; margin-bottom: 0px ; margin-left: 4px&quot;&gt;&lt;br&gt;&lt;/p&gt;&lt;p style=&quot;margin-top: 0px ; margin-bottom: 0px ; margin-left: 4px&quot;&gt;&lt;br&gt;&lt;/p&gt;&lt;p style=&quot;margin: 0px ; margin-left: 4px&quot;&gt;&lt;br&gt;&lt;/p&gt;" style="verticalAlign=top;align=left;overflow=fill;fontSize=12;fontFamily=Helvetica;html=1;" parent="M8zQa_Ylqo-KHK09IEU5-128" vertex="1">
          <mxGeometry x="390" y="880" width="420" height="120" as="geometry" />
        </mxCell>
        <mxCell id="M8zQa_Ylqo-KHK09IEU5-61" value="Use" style="endArrow=open;endSize=12;dashed=1;html=1;entryX=0.5;entryY=0;entryDx=0;entryDy=0;" parent="M8zQa_Ylqo-KHK09IEU5-128" source="M8zQa_Ylqo-KHK09IEU5-60" target="M8zQa_Ylqo-KHK09IEU5-59" edge="1">
          <mxGeometry x="3210.0014876033056" y="89.21489690835494" width="158.67768595041318" as="geometry">
            <mxPoint x="4429.836198347107" y="843.2421696356276" as="sourcePoint" />
            <mxPoint x="4588.51388429752" y="843.2421696356276" as="targetPoint" />
          </mxGeometry>
        </mxCell>
        <mxCell id="M8zQa_Ylqo-KHK09IEU5-62" value="" style="endArrow=block;dashed=1;endFill=0;endSize=12;html=1;" parent="M8zQa_Ylqo-KHK09IEU5-128" source="M8zQa_Ylqo-KHK09IEU5-63" target="M8zQa_Ylqo-KHK09IEU5-59" edge="1">
          <mxGeometry x="2917.851487603306" y="293.47672662863476" width="158.67768595041318" as="geometry">
            <mxPoint x="1768.541666666667" y="2478.507085020243" as="sourcePoint" />
            <mxPoint x="1895.9506611570241" y="2550.434768586677" as="targetPoint" />
          </mxGeometry>
        </mxCell>
        <mxCell id="M8zQa_Ylqo-KHK09IEU5-63" value="&lt;p style=&quot;margin-top: 4px ; margin-bottom: 0px ; text-align: center&quot;&gt;&lt;b&gt;FileFormatConversionService&lt;/b&gt;&lt;br&gt;&lt;/p&gt;&lt;hr size=&quot;1&quot;&gt;&lt;p style=&quot;margin-top: 0px ; margin-bottom: 0px ; margin-left: 4px&quot;&gt;&lt;br&gt;&lt;/p&gt;&lt;p style=&quot;margin-top: 0px ; margin-bottom: 0px ; margin-left: 4px&quot;&gt;&lt;br&gt;&lt;/p&gt;" style="verticalAlign=top;align=left;overflow=fill;fontSize=12;fontFamily=Helvetica;html=1;" parent="M8zQa_Ylqo-KHK09IEU5-128" vertex="1">
          <mxGeometry x="210" y="1230" width="198.35" height="80" as="geometry" />
        </mxCell>
        <mxCell id="M8zQa_Ylqo-KHK09IEU5-64" value="&lt;p style=&quot;margin-top: 4px ; margin-bottom: 0px ; text-align: center&quot;&gt;&lt;b&gt;FileReadWriteService&lt;/b&gt;&lt;br&gt;&lt;/p&gt;&lt;hr size=&quot;1&quot;&gt;&lt;p style=&quot;margin-top: 0px ; margin-bottom: 0px ; margin-left: 4px&quot;&gt;&lt;br&gt;&lt;/p&gt;&lt;p style=&quot;margin-top: 0px ; margin-bottom: 0px ; margin-left: 4px&quot;&gt;&lt;br&gt;&lt;/p&gt;" style="verticalAlign=top;align=left;overflow=fill;fontSize=12;fontFamily=Helvetica;html=1;" parent="M8zQa_Ylqo-KHK09IEU5-128" vertex="1">
          <mxGeometry x="100" y="1110" width="198.35" height="97.14" as="geometry" />
        </mxCell>
        <mxCell id="M8zQa_Ylqo-KHK09IEU5-65" value="&lt;p style=&quot;margin-top: 4px ; margin-bottom: 0px ; text-align: center&quot;&gt;&lt;b&gt;StorageManagementService&lt;/b&gt;&lt;br&gt;&lt;/p&gt;&lt;hr size=&quot;1&quot;&gt;&lt;p style=&quot;margin-top: 0px ; margin-bottom: 0px ; margin-left: 4px&quot;&gt;&lt;br&gt;&lt;/p&gt;&lt;p style=&quot;margin-top: 0px ; margin-bottom: 0px ; margin-left: 4px&quot;&gt;&lt;br&gt;&lt;/p&gt;" style="verticalAlign=top;align=left;overflow=fill;fontSize=12;fontFamily=Helvetica;html=1;" parent="M8zQa_Ylqo-KHK09IEU5-128" vertex="1">
          <mxGeometry x="500.82" y="1280" width="198.35" height="110" as="geometry" />
        </mxCell>
        <mxCell id="M8zQa_Ylqo-KHK09IEU5-66" value="&lt;p style=&quot;margin-top: 4px ; margin-bottom: 0px ; text-align: center&quot;&gt;&lt;b&gt;FileMetadataService&lt;/b&gt;&lt;br&gt;&lt;/p&gt;&lt;hr size=&quot;1&quot;&gt;&lt;p style=&quot;margin-top: 0px ; margin-bottom: 0px ; margin-left: 4px&quot;&gt;&lt;br&gt;&lt;/p&gt;&lt;p style=&quot;margin-top: 0px ; margin-bottom: 0px ; margin-left: 4px&quot;&gt;&lt;br&gt;&lt;/p&gt;" style="verticalAlign=top;align=left;overflow=fill;fontSize=12;fontFamily=Helvetica;html=1;" parent="M8zQa_Ylqo-KHK09IEU5-128" vertex="1">
          <mxGeometry x="820" y="1230" width="198.35" height="80" as="geometry" />
        </mxCell>
        <mxCell id="M8zQa_Ylqo-KHK09IEU5-67" value="" style="endArrow=block;dashed=1;endFill=0;endSize=12;html=1;" parent="M8zQa_Ylqo-KHK09IEU5-128" source="M8zQa_Ylqo-KHK09IEU5-65" target="M8zQa_Ylqo-KHK09IEU5-59" edge="1">
          <mxGeometry x="4327.851487603306" y="527.2267266286347" width="158.67768595041318" as="geometry">
            <mxPoint x="1867.2477273230788" y="2550.4306077475153" as="sourcePoint" />
            <mxPoint x="1989.4496060604383" y="2370.6224696356276" as="targetPoint" />
          </mxGeometry>
        </mxCell>
        <mxCell id="M8zQa_Ylqo-KHK09IEU5-68" value="" style="endArrow=block;dashed=1;endFill=0;endSize=12;html=1;" parent="M8zQa_Ylqo-KHK09IEU5-128" source="M8zQa_Ylqo-KHK09IEU5-66" target="M8zQa_Ylqo-KHK09IEU5-59" edge="1">
          <mxGeometry x="5737.851487603306" y="760.9767266286347" width="158.67768595041318" as="geometry">
            <mxPoint x="2087.828671882881" y="2550.4306077475153" as="sourcePoint" />
            <mxPoint x="2033.5657074693877" y="2370.6224696356276" as="targetPoint" />
          </mxGeometry>
        </mxCell>
        <mxCell id="M8zQa_Ylqo-KHK09IEU5-69" value="" style="endArrow=block;dashed=1;endFill=0;endSize=12;html=1;" parent="M8zQa_Ylqo-KHK09IEU5-128" source="M8zQa_Ylqo-KHK09IEU5-64" target="M8zQa_Ylqo-KHK09IEU5-59" edge="1">
          <mxGeometry x="7147.851487603306" y="994.7267266286348" width="158.67768595041318" as="geometry">
            <mxPoint x="2270" y="2436.796772663093" as="sourcePoint" />
            <mxPoint x="2121.1280699721965" y="2370.6224696356276" as="targetPoint" />
          </mxGeometry>
        </mxCell>
        <mxCell id="M8zQa_Ylqo-KHK09IEU5-70" value="&lt;p style=&quot;margin-top: 4px ; margin-bottom: 0px ; text-align: center&quot;&gt;&lt;b&gt;FileErrorHandlingService&lt;/b&gt;&lt;br&gt;&lt;/p&gt;&lt;hr size=&quot;1&quot;&gt;&lt;p style=&quot;margin-top: 0px ; margin-bottom: 0px ; margin-left: 4px&quot;&gt;&lt;br&gt;&lt;/p&gt;&lt;p style=&quot;margin-top: 0px ; margin-bottom: 0px ; margin-left: 4px&quot;&gt;&lt;br&gt;&lt;/p&gt;" style="verticalAlign=top;align=left;overflow=fill;fontSize=12;fontFamily=Helvetica;html=1;" parent="M8zQa_Ylqo-KHK09IEU5-128" vertex="1">
          <mxGeometry x="940" y="1110" width="198.35" height="100.5" as="geometry" />
        </mxCell>
        <mxCell id="M8zQa_Ylqo-KHK09IEU5-71" value="" style="endArrow=block;dashed=1;endFill=0;endSize=12;html=1;" parent="M8zQa_Ylqo-KHK09IEU5-128" source="M8zQa_Ylqo-KHK09IEU5-70" target="M8zQa_Ylqo-KHK09IEU5-59" edge="1">
          <mxGeometry x="8557.851487603306" y="1794.3977792602138" width="158.67768595041318" as="geometry">
            <mxPoint x="258.34859504132237" y="1437.783475414752" as="sourcePoint" />
            <mxPoint x="410" y="1421.2026791442822" as="targetPoint" />
          </mxGeometry>
        </mxCell>
        <mxCell id="M8zQa_Ylqo-KHK09IEU5-72" value="&lt;p style=&quot;margin: 0px ; margin-top: 4px ; text-align: center&quot;&gt;&lt;b&gt;ISnapshotService&lt;/b&gt;&lt;br&gt;&lt;/p&gt;&lt;hr size=&quot;1&quot;&gt;&lt;p style=&quot;margin: 0px ; margin-left: 4px&quot;&gt;&lt;br&gt;&lt;/p&gt;&lt;p style=&quot;margin: 0px ; margin-left: 4px&quot;&gt;&lt;br&gt;&lt;/p&gt;" style="verticalAlign=top;align=left;overflow=fill;fontSize=12;fontFamily=Helvetica;html=1;" parent="M8zQa_Ylqo-KHK09IEU5-128" vertex="1">
          <mxGeometry x="1518.35" y="1060.0977884615381" width="420" height="89.90384615384615" as="geometry" />
        </mxCell>
        <mxCell id="M8zQa_Ylqo-KHK09IEU5-73" value="&lt;p style=&quot;margin: 0px ; margin-top: 4px ; text-align: center&quot;&gt;&lt;b&gt;SnapshotController&lt;/b&gt;&lt;br&gt;&lt;/p&gt;&lt;hr size=&quot;1&quot;&gt;&lt;p style=&quot;margin-top: 0px ; margin-bottom: 0px ; margin-left: 4px&quot;&gt;+createSnapshot&lt;/p&gt;&lt;p style=&quot;margin-top: 0px ; margin-bottom: 0px ; margin-left: 4px&quot;&gt;+applySnapshot&lt;/p&gt;&lt;p style=&quot;margin-top: 0px ; margin-bottom: 0px ; margin-left: 4px&quot;&gt;+manageSnapshot&lt;/p&gt;&lt;p style=&quot;margin-top: 0px ; margin-bottom: 0px ; margin-left: 4px&quot;&gt;&lt;br&gt;&lt;/p&gt;&lt;p style=&quot;margin-top: 0px ; margin-bottom: 0px ; margin-left: 4px&quot;&gt;&lt;br&gt;&lt;/p&gt;&lt;p style=&quot;margin-top: 0px ; margin-bottom: 0px ; margin-left: 4px&quot;&gt;&lt;br&gt;&lt;/p&gt;&lt;p style=&quot;margin: 0px ; margin-left: 4px&quot;&gt;&lt;br&gt;&lt;/p&gt;" style="verticalAlign=top;align=left;overflow=fill;fontSize=12;fontFamily=Helvetica;html=1;" parent="M8zQa_Ylqo-KHK09IEU5-128" vertex="1">
          <mxGeometry x="1518.35" y="882.5130921052632" width="420" height="114.9803947368421" as="geometry" />
        </mxCell>
        <mxCell id="M8zQa_Ylqo-KHK09IEU5-74" value="Use" style="endArrow=open;endSize=12;dashed=1;html=1;entryX=0.5;entryY=0;entryDx=0;entryDy=0;" parent="M8zQa_Ylqo-KHK09IEU5-128" source="M8zQa_Ylqo-KHK09IEU5-73" target="M8zQa_Ylqo-KHK09IEU5-72" edge="1">
          <mxGeometry x="5728.351487603306" y="876.5833179609866" width="158.67768595041318" as="geometry">
            <mxPoint x="6948.186198347106" y="1630.6105906882594" as="sourcePoint" />
            <mxPoint x="7106.86388429752" y="1630.6105906882594" as="targetPoint" />
          </mxGeometry>
        </mxCell>
        <mxCell id="M8zQa_Ylqo-KHK09IEU5-75" value="" style="endArrow=block;dashed=1;endFill=0;endSize=12;html=1;" parent="M8zQa_Ylqo-KHK09IEU5-128" source="M8zQa_Ylqo-KHK09IEU5-76" target="M8zQa_Ylqo-KHK09IEU5-72" edge="1">
          <mxGeometry x="5436.201487603306" y="1080.8451476812663" width="158.67768595041318" as="geometry">
            <mxPoint x="4286.891666666666" y="3265.8755060728745" as="sourcePoint" />
            <mxPoint x="4414.300661157024" y="3337.8031896393086" as="targetPoint" />
          </mxGeometry>
        </mxCell>
        <mxCell id="M8zQa_Ylqo-KHK09IEU5-76" value="&lt;p style=&quot;margin-top: 4px ; margin-bottom: 0px ; text-align: center&quot;&gt;&lt;b&gt;SnapshotCreationService&lt;/b&gt;&lt;br&gt;&lt;/p&gt;&lt;hr size=&quot;1&quot;&gt;&lt;p style=&quot;margin-top: 0px ; margin-bottom: 0px ; margin-left: 4px&quot;&gt;&lt;br&gt;&lt;/p&gt;&lt;p style=&quot;margin-top: 0px ; margin-bottom: 0px ; margin-left: 4px&quot;&gt;&lt;br&gt;&lt;/p&gt;" style="verticalAlign=top;align=left;overflow=fill;fontSize=12;fontFamily=Helvetica;html=1;" parent="M8zQa_Ylqo-KHK09IEU5-128" vertex="1">
          <mxGeometry x="1260" y="1110" width="198.35" height="110" as="geometry" />
        </mxCell>
        <mxCell id="M8zQa_Ylqo-KHK09IEU5-77" value="&lt;p style=&quot;margin-top: 4px ; margin-bottom: 0px ; text-align: center&quot;&gt;&lt;b&gt;SnapshotRetrievalService&lt;/b&gt;&lt;br&gt;&lt;/p&gt;&lt;hr size=&quot;1&quot;&gt;&lt;p style=&quot;margin-top: 0px ; margin-bottom: 0px ; margin-left: 4px&quot;&gt;&lt;br&gt;&lt;/p&gt;&lt;p style=&quot;margin-top: 0px ; margin-bottom: 0px ; margin-left: 4px&quot;&gt;&lt;br&gt;&lt;/p&gt;" style="verticalAlign=top;align=left;overflow=fill;fontSize=12;fontFamily=Helvetica;html=1;" parent="M8zQa_Ylqo-KHK09IEU5-128" vertex="1">
          <mxGeometry x="1510" y="1240.92" width="198.35" height="89.08" as="geometry" />
        </mxCell>
        <mxCell id="M8zQa_Ylqo-KHK09IEU5-78" value="&lt;p style=&quot;margin-top: 4px ; margin-bottom: 0px ; text-align: center&quot;&gt;&lt;b&gt;SnapshotManagementService&lt;/b&gt;&lt;br&gt;&lt;/p&gt;&lt;hr size=&quot;1&quot;&gt;&lt;p style=&quot;margin-top: 0px ; margin-bottom: 0px ; margin-left: 4px&quot;&gt;&lt;br&gt;&lt;/p&gt;&lt;p style=&quot;margin-top: 0px ; margin-bottom: 0px ; margin-left: 4px&quot;&gt;&lt;br&gt;&lt;/p&gt;" style="verticalAlign=top;align=left;overflow=fill;fontSize=12;fontFamily=Helvetica;html=1;" parent="M8zQa_Ylqo-KHK09IEU5-128" vertex="1">
          <mxGeometry x="1790" y="1240.92" width="198.35" height="89.08" as="geometry" />
        </mxCell>
        <mxCell id="M8zQa_Ylqo-KHK09IEU5-79" value="" style="endArrow=block;dashed=1;endFill=0;endSize=12;html=1;" parent="M8zQa_Ylqo-KHK09IEU5-128" source="M8zQa_Ylqo-KHK09IEU5-77" target="M8zQa_Ylqo-KHK09IEU5-72" edge="1">
          <mxGeometry x="6846.201487603306" y="1314.5951476812663" width="158.67768595041318" as="geometry">
            <mxPoint x="4385.597727323078" y="3337.799028800147" as="sourcePoint" />
            <mxPoint x="4507.799606060438" y="3157.9908906882597" as="targetPoint" />
          </mxGeometry>
        </mxCell>
        <mxCell id="M8zQa_Ylqo-KHK09IEU5-80" value="" style="endArrow=block;dashed=1;endFill=0;endSize=12;html=1;" parent="M8zQa_Ylqo-KHK09IEU5-128" source="M8zQa_Ylqo-KHK09IEU5-78" target="M8zQa_Ylqo-KHK09IEU5-72" edge="1">
          <mxGeometry x="8256.201487603306" y="1548.3451476812663" width="158.67768595041318" as="geometry">
            <mxPoint x="4606.178671882881" y="3337.799028800147" as="sourcePoint" />
            <mxPoint x="4551.915707469388" y="3157.9908906882597" as="targetPoint" />
          </mxGeometry>
        </mxCell>
        <mxCell id="M8zQa_Ylqo-KHK09IEU5-81" value="&lt;p style=&quot;margin-top: 4px ; margin-bottom: 0px ; text-align: center&quot;&gt;&lt;b&gt;SnapshotMetadataService&lt;/b&gt;&lt;br&gt;&lt;/p&gt;&lt;hr size=&quot;1&quot;&gt;&lt;p style=&quot;margin-top: 0px ; margin-bottom: 0px ; margin-left: 4px&quot;&gt;&lt;br&gt;&lt;/p&gt;&lt;p style=&quot;margin-top: 0px ; margin-bottom: 0px ; margin-left: 4px&quot;&gt;&lt;br&gt;&lt;/p&gt;" style="verticalAlign=top;align=left;overflow=fill;fontSize=12;fontFamily=Helvetica;html=1;" parent="M8zQa_Ylqo-KHK09IEU5-128" vertex="1">
          <mxGeometry x="2030" y="1110.0032793522266" width="198.35" height="143.84615384615387" as="geometry" />
        </mxCell>
        <mxCell id="M8zQa_Ylqo-KHK09IEU5-82" value="" style="endArrow=block;dashed=1;endFill=0;endSize=12;html=1;" parent="M8zQa_Ylqo-KHK09IEU5-128" source="M8zQa_Ylqo-KHK09IEU5-81" target="M8zQa_Ylqo-KHK09IEU5-72" edge="1">
          <mxGeometry x="11076.201487603306" y="2581.7662003128453" width="158.67768595041318" as="geometry">
            <mxPoint x="2776.6985950413223" y="2225.1518964673837" as="sourcePoint" />
            <mxPoint x="2928.35" y="2208.571100196914" as="targetPoint" />
          </mxGeometry>
        </mxCell>
        <mxCell id="M8zQa_Ylqo-KHK09IEU5-83" value="&lt;p style=&quot;margin: 0px ; margin-top: 4px ; text-align: center&quot;&gt;&lt;b&gt;ICustomPlugin&lt;/b&gt;&lt;br&gt;&lt;/p&gt;&lt;hr size=&quot;1&quot;&gt;&lt;p style=&quot;margin: 0px ; margin-left: 4px&quot;&gt;initialize&lt;/p&gt;&lt;p style=&quot;margin: 0px ; margin-left: 4px&quot;&gt;enable&lt;/p&gt;&lt;p style=&quot;margin: 0px ; margin-left: 4px&quot;&gt;disable&lt;/p&gt;&lt;p style=&quot;margin: 0px ; margin-left: 4px&quot;&gt;destory&lt;/p&gt;&lt;p style=&quot;margin: 0px ; margin-left: 4px&quot;&gt;&lt;br&gt;&lt;/p&gt;" style="verticalAlign=top;align=left;overflow=fill;fontSize=12;fontFamily=Helvetica;html=1;" parent="M8zQa_Ylqo-KHK09IEU5-128" vertex="1">
          <mxGeometry x="924.9999999999999" y="1599.9977884615382" width="420" height="89.90384615384615" as="geometry" />
        </mxCell>
        <mxCell id="M8zQa_Ylqo-KHK09IEU5-84" value="&lt;p style=&quot;margin: 0px ; margin-top: 4px ; text-align: center&quot;&gt;&lt;b&gt;CustomizationController&lt;/b&gt;&lt;br&gt;&lt;/p&gt;&lt;hr size=&quot;1&quot;&gt;&lt;p style=&quot;margin-top: 0px ; margin-bottom: 0px ; margin-left: 4px&quot;&gt;+addCustomFunction&lt;/p&gt;&lt;p style=&quot;margin-top: 0px ; margin-bottom: 0px ; margin-left: 4px&quot;&gt;+removeCustomFunction&lt;/p&gt;&lt;p style=&quot;margin-top: 0px ; margin-bottom: 0px ; margin-left: 4px&quot;&gt;+triggerEvent&lt;/p&gt;&lt;p style=&quot;margin-top: 0px ; margin-bottom: 0px ; margin-left: 4px&quot;&gt;+managePluginCofig&lt;br&gt;&lt;/p&gt;&lt;p style=&quot;margin-top: 0px ; margin-bottom: 0px ; margin-left: 4px&quot;&gt;&lt;br&gt;&lt;/p&gt;&lt;p style=&quot;margin-top: 0px ; margin-bottom: 0px ; margin-left: 4px&quot;&gt;&lt;br&gt;&lt;/p&gt;&lt;p style=&quot;margin-top: 0px ; margin-bottom: 0px ; margin-left: 4px&quot;&gt;&lt;br&gt;&lt;/p&gt;&lt;p style=&quot;margin: 0px ; margin-left: 4px&quot;&gt;&lt;br&gt;&lt;/p&gt;" style="verticalAlign=top;align=left;overflow=fill;fontSize=12;fontFamily=Helvetica;html=1;" parent="M8zQa_Ylqo-KHK09IEU5-128" vertex="1">
          <mxGeometry x="924.9999999999999" y="1420.0030921052632" width="420" height="114.9803947368421" as="geometry" />
        </mxCell>
        <mxCell id="M8zQa_Ylqo-KHK09IEU5-85" value="Use" style="endArrow=open;endSize=12;dashed=1;html=1;entryX=0.5;entryY=0;entryDx=0;entryDy=0;" parent="M8zQa_Ylqo-KHK09IEU5-128" source="M8zQa_Ylqo-KHK09IEU5-84" target="M8zQa_Ylqo-KHK09IEU5-83" edge="1">
          <mxGeometry x="6528.351487603306" y="2438.7033179609866" width="158.67768595041318" as="geometry">
            <mxPoint x="7748.186198347106" y="3192.7305906882593" as="sourcePoint" />
            <mxPoint x="7906.86388429752" y="3192.7305906882593" as="targetPoint" />
          </mxGeometry>
        </mxCell>
        <mxCell id="M8zQa_Ylqo-KHK09IEU5-86" value="&lt;p style=&quot;margin-top: 4px ; margin-bottom: 0px ; text-align: center&quot;&gt;&lt;b&gt;EventBus&lt;/b&gt;&lt;br&gt;&lt;/p&gt;&lt;hr size=&quot;1&quot;&gt;&lt;p style=&quot;margin-top: 0px ; margin-bottom: 0px ; margin-left: 4px&quot;&gt;emit&lt;/p&gt;&lt;p style=&quot;margin-top: 0px ; margin-bottom: 0px ; margin-left: 4px&quot;&gt;on&lt;/p&gt;&lt;p style=&quot;margin-top: 0px ; margin-bottom: 0px ; margin-left: 4px&quot;&gt;off&lt;/p&gt;&lt;p style=&quot;margin-top: 0px ; margin-bottom: 0px ; margin-left: 4px&quot;&gt;&lt;br&gt;&lt;/p&gt;" style="verticalAlign=top;align=left;overflow=fill;fontSize=12;fontFamily=Helvetica;html=1;" parent="M8zQa_Ylqo-KHK09IEU5-128" vertex="1">
          <mxGeometry x="643.3" y="1600" width="198.35" height="90" as="geometry" />
        </mxCell>
        <mxCell id="M8zQa_Ylqo-KHK09IEU5-87" value="&lt;p style=&quot;margin-top: 4px ; margin-bottom: 0px ; text-align: center&quot;&gt;&lt;b&gt;PluginRegistry&lt;/b&gt;&lt;/p&gt;&lt;hr size=&quot;1&quot;&gt;&lt;p style=&quot;margin-top: 0px ; margin-bottom: 0px ; margin-left: 4px&quot;&gt;registerPlugin&lt;/p&gt;&lt;p style=&quot;margin-top: 0px ; margin-bottom: 0px ; margin-left: 4px&quot;&gt;removePlugin&lt;/p&gt;&lt;p style=&quot;margin-top: 0px ; margin-bottom: 0px ; margin-left: 4px&quot;&gt;getPlugin&lt;/p&gt;&lt;p style=&quot;margin-top: 0px ; margin-bottom: 0px ; margin-left: 4px&quot;&gt;&lt;br&gt;&lt;/p&gt;" style="verticalAlign=top;align=left;overflow=fill;fontSize=12;fontFamily=Helvetica;html=1;" parent="M8zQa_Ylqo-KHK09IEU5-128" vertex="1">
          <mxGeometry x="1398.35" y="1600" width="198.35" height="80" as="geometry" />
        </mxCell>
        <mxCell id="M8zQa_Ylqo-KHK09IEU5-88" value="Use" style="endArrow=open;endSize=12;dashed=1;html=1;" parent="M8zQa_Ylqo-KHK09IEU5-128" source="M8zQa_Ylqo-KHK09IEU5-84" target="M8zQa_Ylqo-KHK09IEU5-86" edge="1">
          <mxGeometry x="7938.351487603306" y="3438.7033179609866" width="158.67768595041318" as="geometry">
            <mxPoint x="1145" y="1544.9834868421053" as="sourcePoint" />
            <mxPoint x="1145" y="1609.9977884615382" as="targetPoint" />
          </mxGeometry>
        </mxCell>
        <mxCell id="M8zQa_Ylqo-KHK09IEU5-89" value="Use" style="endArrow=open;endSize=12;dashed=1;html=1;" parent="M8zQa_Ylqo-KHK09IEU5-128" source="M8zQa_Ylqo-KHK09IEU5-86" target="M8zQa_Ylqo-KHK09IEU5-83" edge="1">
          <mxGeometry x="9348.351487603306" y="4438.703317960986" width="158.67768595041318" as="geometry">
            <mxPoint x="1010.2809809760179" y="1544.9834868421053" as="sourcePoint" />
            <mxPoint x="851.6499999999999" y="1612.677910919184" as="targetPoint" />
          </mxGeometry>
        </mxCell>
        <mxCell id="M8zQa_Ylqo-KHK09IEU5-90" value="&lt;p style=&quot;margin-top: 4px ; margin-bottom: 0px ; text-align: center&quot;&gt;&lt;b&gt;PluginManager&lt;/b&gt;&lt;/p&gt;&lt;hr size=&quot;1&quot;&gt;&lt;p style=&quot;margin-top: 0px ; margin-bottom: 0px ; margin-left: 4px&quot;&gt;saveConfig&lt;/p&gt;&lt;p style=&quot;margin-top: 0px ; margin-bottom: 0px ; margin-left: 4px&quot;&gt;getConfig&lt;/p&gt;&lt;p style=&quot;margin-top: 0px ; margin-bottom: 0px ; margin-left: 4px&quot;&gt;updateConfig&lt;/p&gt;&lt;p style=&quot;margin-top: 0px ; margin-bottom: 0px ; margin-left: 4px&quot;&gt;&lt;br&gt;&lt;/p&gt;" style="verticalAlign=top;align=left;overflow=fill;fontSize=12;fontFamily=Helvetica;html=1;" parent="M8zQa_Ylqo-KHK09IEU5-128" vertex="1">
          <mxGeometry x="1540" y="1470" width="198.35" height="80" as="geometry" />
        </mxCell>
        <mxCell id="M8zQa_Ylqo-KHK09IEU5-91" value="Use" style="endArrow=open;endSize=12;dashed=1;html=1;" parent="M8zQa_Ylqo-KHK09IEU5-128" source="M8zQa_Ylqo-KHK09IEU5-84" target="M8zQa_Ylqo-KHK09IEU5-90" edge="1">
          <mxGeometry x="7938.351487603306" y="3438.7033179609866" width="158.67768595041318" as="geometry">
            <mxPoint x="1145" y="1544.9834868421049" as="sourcePoint" />
            <mxPoint x="1145" y="1609.9977884615382" as="targetPoint" />
          </mxGeometry>
        </mxCell>
        <mxCell id="M8zQa_Ylqo-KHK09IEU5-92" value="Use" style="endArrow=open;endSize=12;dashed=1;html=1;" parent="M8zQa_Ylqo-KHK09IEU5-128" source="M8zQa_Ylqo-KHK09IEU5-84" target="M8zQa_Ylqo-KHK09IEU5-87" edge="1">
          <mxGeometry x="9348.351487603306" y="4438.703317960986" width="158.67768595041318" as="geometry">
            <mxPoint x="1355" y="1501.033050886936" as="sourcePoint" />
            <mxPoint x="1550" y="1513.6056864849556" as="targetPoint" />
          </mxGeometry>
        </mxCell>
        <mxCell id="TtmFSg_aWq5ySA_oG-eG-19" value="" style="group" vertex="1" connectable="0" parent="M8zQa_Ylqo-KHK09IEU5-29">
          <mxGeometry x="10" y="2050" width="2400" height="1190" as="geometry" />
        </mxCell>
        <mxCell id="TtmFSg_aWq5ySA_oG-eG-17" value="" style="shape=folder;fontStyle=1;spacingTop=10;tabWidth=250;tabHeight=70;tabPosition=left;html=1;" vertex="1" parent="TtmFSg_aWq5ySA_oG-eG-19">
          <mxGeometry width="2400" height="1190" as="geometry" />
        </mxCell>
        <UserObject label="" plantUmlData="{&quot;data&quot;:&quot;@startuml\n\n&#39; Hide the Attributeicons for classes and interfaces\nskinparam classAttributeIconSize 0\nskinparam classStereotypeIconSize 0\n\n&#39; Hide the icons for classes and interfaces\nhide circle\n\n&#39; Customize the style\nskinparam class {\n    BackgroundColor White\n    BorderColor Black\n    FontName Helvetica\n    FontSize 16\n    AttributeFontSize 14\n}\n\nskinparam interface {\n    BackgroundColor White\n    BorderColor Black\n    FontName Helvetica\n    FontSize 16\n    AttributeFontSize 14\n}\n\n&#39; Defining your classes, interfaces, and relationships\n\nclass CoreEngine {\n    +execute(operation: IUnaryOperation, input: IPointSeries, result: OperationResult)\n    +execute(operation: IBinaryOperation, input1: IPointSeries, input2: IPointSeries, result: OperationResult)\n    +execute(operation: IUnaryOperation, input: vector&lt;IPointSeries&gt;, result: OperationResult)\n    +execute(operation: IBinaryOperation, input1: vector&lt;IPointSeries&gt;, input2: vector&lt;IPointSeries&gt;, result: OperationResult)\n    +execute(operation: ICustomExtendOperation&lt;...T&gt;, data: vector&lt;CustomPointSeries&lt;...T&gt;&gt;, result: OperationResult)\n}\n\ninterface IPointSeries &lt;&lt;interface&gt;&gt; {\n\n}\n\nCoreEngine -down..&gt; IPointSeries : uses\n\nclass 1DPointSeries {\n    - x: double\n}\n\nclass 2DPointSeries {\n    - x: double\n    - y: double\n}\n\nclass 3DPointSeries {\n    - x: double\n    - y: double\n    - z: double\n}\n\nclass CustomPointSeries&lt;T...&gt; &lt;&lt;template&gt;&gt;{\n    - points: CustomPoint&lt;Types...&gt;\n}\n\n\n1DPointSeries -up..|&gt; IPointSeries\n2DPointSeries -up..|&gt; IPointSeries\n3DPointSeries -up..|&gt; IPointSeries\nCustomPointSeries -up..|&gt; IPointSeries\n\nclass OperationResult {\n    - resultPoints: IPointSeries\n    - isSuccess: bool\n    - message: string\n}\n\nCoreEngine -down..&gt; OperationResult : uses\n\ninterface IOperation &lt;&lt;interface&gt;&gt;{\n\n}\n\nCoreEngine -down..&gt; IOperation : uses\n\ninterface IUnaryOperation &lt;&lt;interface&gt;&gt;{\n    +execute()\n}\n\ninterface IBinaryOperation &lt;&lt;interface&gt;&gt;{\n    +execute()\n}\n\ninterface ICustomExtendOperation&lt;T...&gt; &lt;&lt;interface&gt;&gt; &lt;&lt;template&gt;&gt;{\n    +execute()\n    - m_functions\n}\n\nIUnaryOperation -up..|&gt; IOperation\nIBinaryOperation -up..|&gt; IOperation\nICustomExtendOperation -up..|&gt; IOperation\n\n@enduml\n&quot;,&quot;format&quot;:&quot;svg&quot;}" id="TtmFSg_aWq5ySA_oG-eG-10">
          <mxCell style="shape=image;noLabel=1;verticalAlign=top;aspect=fixed;imageAspect=0;image=data:image/svg+xml,PD94bWwgdmVyc2lvbj0iMS4wIiBlbmNvZGluZz0idXMtYXNjaWkiIHN0YW5kYWxvbmU9Im5vIj8+PHN2ZyB4bWxucz0iaHR0cDovL3d3dy53My5vcmcvMjAwMC9zdmciIHhtbG5zOnhsaW5rPSJodHRwOi8vd3d3LnczLm9yZy8xOTk5L3hsaW5rIiBjb250ZW50U3R5bGVUeXBlPSJ0ZXh0L2NzcyIgaGVpZ2h0PSI1NzJweCIgcHJlc2VydmVBc3BlY3RSYXRpbz0ibm9uZSIgc3R5bGU9IndpZHRoOjExNjFweDtoZWlnaHQ6NTcycHg7YmFja2dyb3VuZDojRkZGRkZGOyIgdmVyc2lvbj0iMS4xIiB2aWV3Qm94PSIwIDAgMTE2MSA1NzIiIHdpZHRoPSIxMTYxcHgiIHpvb21BbmRQYW49Im1hZ25pZnkiPjxkZWZzLz48Zz48IS0tY2xhc3MgQ29yZUVuZ2luZS0tPjxnIGlkPSJlbGVtX0NvcmVFbmdpbmUiPjxyZWN0IGNvZGVMaW5lPSIyNyIgZmlsbD0iI0ZGRkZGRiIgaGVpZ2h0PSIxMTUuOTA2MyIgaWQ9IkNvcmVFbmdpbmUiIHJ4PSIyLjUiIHJ5PSIyLjUiIHN0eWxlPSJzdHJva2U6IzAwMDAwMDtzdHJva2Utd2lkdGg6MC41OyIgd2lkdGg9Ijg2OCIgeD0iMjc3LjUiIHk9IjciLz48dGV4dCBmaWxsPSIjMDAwMDAwIiBmb250LWZhbWlseT0iSGVsdmV0aWNhIiBmb250LXNpemU9IjE0IiBsZW5ndGhBZGp1c3Q9InNwYWNpbmciIHRleHRMZW5ndGg9IjcwIiB4PSI2NzYuNSIgeT0iMjUuMjM0NCI+Q29yZUVuZ2luZTwvdGV4dD48bGluZSBzdHlsZT0ic3Ryb2tlOiMwMDAwMDA7c3Ryb2tlLXdpZHRoOjAuNTsiIHgxPSIyNzguNSIgeDI9IjExNDQuNSIgeTE9IjMxLjk4NDQiIHkyPSIzMS45ODQ0Ii8+PGxpbmUgc3R5bGU9InN0cm9rZTojMDAwMDAwO3N0cm9rZS13aWR0aDowLjU7IiB4MT0iMjc4LjUiIHgyPSIxMTQ0LjUiIHkxPSIzOS45ODQ0IiB5Mj0iMzkuOTg0NCIvPjx0ZXh0IGZpbGw9IiMwMDAwMDAiIGZvbnQtZmFtaWx5PSJzYW5zLXNlcmlmIiBmb250LXNpemU9IjE0IiBsZW5ndGhBZGp1c3Q9InNwYWNpbmciIHRleHRMZW5ndGg9IjU3NiIgeD0iMjgzLjUiIHk9IjU3LjIxODgiPitleGVjdXRlKG9wZXJhdGlvbjogSVVuYXJ5T3BlcmF0aW9uLCBpbnB1dDogSVBvaW50U2VyaWVzLCByZXN1bHQ6IE9wZXJhdGlvblJlc3VsdCk8L3RleHQ+PHRleHQgZmlsbD0iIzAwMDAwMCIgZm9udC1mYW1pbHk9InNhbnMtc2VyaWYiIGZvbnQtc2l6ZT0iMTQiIGxlbmd0aEFkanVzdD0ic3BhY2luZyIgdGV4dExlbmd0aD0iNzQ0IiB4PSIyODMuNSIgeT0iNzIuMjAzMSI+K2V4ZWN1dGUob3BlcmF0aW9uOiBJQmluYXJ5T3BlcmF0aW9uLCBpbnB1dDE6IElQb2ludFNlcmllcywgaW5wdXQyOiBJUG9pbnRTZXJpZXMsIHJlc3VsdDogT3BlcmF0aW9uUmVzdWx0KTwvdGV4dD48dGV4dCBmaWxsPSIjMDAwMDAwIiBmb250LWZhbWlseT0ic2Fucy1zZXJpZiIgZm9udC1zaXplPSIxNCIgbGVuZ3RoQWRqdXN0PSJzcGFjaW5nIiB0ZXh0TGVuZ3RoPSI2MzIiIHg9IjI4My41IiB5PSI4Ny4xODc1Ij4rZXhlY3V0ZShvcGVyYXRpb246IElVbmFyeU9wZXJhdGlvbiwgaW5wdXQ6IHZlY3RvciZsdDtJUG9pbnRTZXJpZXMmZ3Q7LCByZXN1bHQ6IE9wZXJhdGlvblJlc3VsdCk8L3RleHQ+PHRleHQgZmlsbD0iIzAwMDAwMCIgZm9udC1mYW1pbHk9InNhbnMtc2VyaWYiIGZvbnQtc2l6ZT0iMTQiIGxlbmd0aEFkanVzdD0ic3BhY2luZyIgdGV4dExlbmd0aD0iODU2IiB4PSIyODMuNSIgeT0iMTAyLjE3MTkiPitleGVjdXRlKG9wZXJhdGlvbjogSUJpbmFyeU9wZXJhdGlvbiwgaW5wdXQxOiB2ZWN0b3ImbHQ7SVBvaW50U2VyaWVzJmd0OywgaW5wdXQyOiB2ZWN0b3ImbHQ7SVBvaW50U2VyaWVzJmd0OywgcmVzdWx0OiBPcGVyYXRpb25SZXN1bHQpPC90ZXh0Pjx0ZXh0IGZpbGw9IiMwMDAwMDAiIGZvbnQtZmFtaWx5PSJzYW5zLXNlcmlmIiBmb250LXNpemU9IjE0IiBsZW5ndGhBZGp1c3Q9InNwYWNpbmciIHRleHRMZW5ndGg9Ijc5NSIgeD0iMjgzLjUiIHk9IjExNy4xNTYzIj4rZXhlY3V0ZShvcGVyYXRpb246IElDdXN0b21FeHRlbmRPcGVyYXRpb24mbHQ7Li4uVCZndDssIGRhdGE6IHZlY3RvciZsdDtDdXN0b21Qb2ludFNlcmllcyZsdDsuLi5UJmd0OyZndDssIHJlc3VsdDogT3BlcmF0aW9uUmVzdWx0KTwvdGV4dD48L2c+PCEtLWNsYXNzIElQb2ludFNlcmllcy0tPjxnIGlkPSJlbGVtX0lQb2ludFNlcmllcyI+PHJlY3QgY29kZUxpbmU9IjM1IiBmaWxsPSIjRkZGRkZGIiBoZWlnaHQ9IjUzLjgyODEiIGlkPSJJUG9pbnRTZXJpZXMiIHJ4PSIyLjUiIHJ5PSIyLjUiIHN0eWxlPSJzdHJva2U6IzAwMDAwMDtzdHJva2Utd2lkdGg6MC41OyIgd2lkdGg9IjkwIiB4PSI2NjYuNSIgeT0iMjc2Ii8+PHRleHQgZmlsbD0iIzAwMDAwMCIgZm9udC1mYW1pbHk9InNhbnMtc2VyaWYiIGZvbnQtc2l6ZT0iMTIiIGZvbnQtc3R5bGU9Iml0YWxpYyIgbGVuZ3RoQWRqdXN0PSJzcGFjaW5nIiB0ZXh0TGVuZ3RoPSI3MSIgeD0iNjc2IiB5PSIyOTIuMzQzOCI+JiMxNzE7aW50ZXJmYWNlJiMxODc7PC90ZXh0Pjx0ZXh0IGZpbGw9IiMwMDAwMDAiIGZvbnQtZmFtaWx5PSJIZWx2ZXRpY2EiIGZvbnQtc2l6ZT0iMTQiIGZvbnQtc3R5bGU9Iml0YWxpYyIgbGVuZ3RoQWRqdXN0PSJzcGFjaW5nIiB0ZXh0TGVuZ3RoPSI4NCIgeD0iNjY5LjUiIHk9IjMwNy4wNzgxIj5JUG9pbnRTZXJpZXM8L3RleHQ+PGxpbmUgc3R5bGU9InN0cm9rZTojMDAwMDAwO3N0cm9rZS13aWR0aDowLjU7IiB4MT0iNjY3LjUiIHgyPSI3NTUuNSIgeTE9IjMxMy44MjgxIiB5Mj0iMzEzLjgyODEiLz48bGluZSBzdHlsZT0ic3Ryb2tlOiMwMDAwMDA7c3Ryb2tlLXdpZHRoOjAuNTsiIHgxPSI2NjcuNSIgeDI9Ijc1NS41IiB5MT0iMzIxLjgyODEiIHkyPSIzMjEuODI4MSIvPjwvZz48IS0tY2xhc3MgMURQb2ludFNlcmllcy0tPjxnIGlkPSJlbGVtXzFEUG9pbnRTZXJpZXMiPjxyZWN0IGNvZGVMaW5lPSI0MSIgZmlsbD0iI0ZGRkZGRiIgaGVpZ2h0PSI1NS45Njg4IiBpZD0iMURQb2ludFNlcmllcyIgcng9IjIuNSIgcnk9IjIuNSIgc3R5bGU9InN0cm9rZTojMDAwMDAwO3N0cm9rZS13aWR0aDowLjU7IiB3aWR0aD0iOTciIHg9IjUzMSIgeT0iNDg5LjUiLz48dGV4dCBmaWxsPSIjMDAwMDAwIiBmb250LWZhbWlseT0iSGVsdmV0aWNhIiBmb250LXNpemU9IjE0IiBsZW5ndGhBZGp1c3Q9InNwYWNpbmciIHRleHRMZW5ndGg9IjkxIiB4PSI1MzQiIHk9IjUwNy43MzQ0Ij4xRFBvaW50U2VyaWVzPC90ZXh0PjxsaW5lIHN0eWxlPSJzdHJva2U6IzAwMDAwMDtzdHJva2Utd2lkdGg6MC41OyIgeDE9IjUzMiIgeDI9IjYyNyIgeTE9IjUxNC40ODQ0IiB5Mj0iNTE0LjQ4NDQiLz48dGV4dCBmaWxsPSIjMDAwMDAwIiBmb250LWZhbWlseT0ic2Fucy1zZXJpZiIgZm9udC1zaXplPSIxNCIgbGVuZ3RoQWRqdXN0PSJzcGFjaW5nIiB0ZXh0TGVuZ3RoPSI3MCIgeD0iNTM3IiB5PSI1MzEuNzE4OCI+LXg6IGRvdWJsZTwvdGV4dD48bGluZSBzdHlsZT0ic3Ryb2tlOiMwMDAwMDA7c3Ryb2tlLXdpZHRoOjAuNTsiIHgxPSI1MzIiIHgyPSI2MjciIHkxPSI1MzcuNDY4OCIgeTI9IjUzNy40Njg4Ii8+PC9nPjwhLS1jbGFzcyAyRFBvaW50U2VyaWVzLS0+PGcgaWQ9ImVsZW1fMkRQb2ludFNlcmllcyI+PHJlY3QgY29kZUxpbmU9IjQ1IiBmaWxsPSIjRkZGRkZGIiBoZWlnaHQ9IjcwLjk1MzEiIGlkPSIyRFBvaW50U2VyaWVzIiByeD0iMi41IiByeT0iMi41IiBzdHlsZT0ic3Ryb2tlOiMwMDAwMDA7c3Ryb2tlLXdpZHRoOjAuNTsiIHdpZHRoPSI5NyIgeD0iNjYzIiB5PSI0ODIiLz48dGV4dCBmaWxsPSIjMDAwMDAwIiBmb250LWZhbWlseT0iSGVsdmV0aWNhIiBmb250LXNpemU9IjE0IiBsZW5ndGhBZGp1c3Q9InNwYWNpbmciIHRleHRMZW5ndGg9IjkxIiB4PSI2NjYiIHk9IjUwMC4yMzQ0Ij4yRFBvaW50U2VyaWVzPC90ZXh0PjxsaW5lIHN0eWxlPSJzdHJva2U6IzAwMDAwMDtzdHJva2Utd2lkdGg6MC41OyIgeDE9IjY2NCIgeDI9Ijc1OSIgeTE9IjUwNi45ODQ0IiB5Mj0iNTA2Ljk4NDQiLz48dGV4dCBmaWxsPSIjMDAwMDAwIiBmb250LWZhbWlseT0ic2Fucy1zZXJpZiIgZm9udC1zaXplPSIxNCIgbGVuZ3RoQWRqdXN0PSJzcGFjaW5nIiB0ZXh0TGVuZ3RoPSI3MCIgeD0iNjY5IiB5PSI1MjQuMjE4OCI+LXg6IGRvdWJsZTwvdGV4dD48dGV4dCBmaWxsPSIjMDAwMDAwIiBmb250LWZhbWlseT0ic2Fucy1zZXJpZiIgZm9udC1zaXplPSIxNCIgbGVuZ3RoQWRqdXN0PSJzcGFjaW5nIiB0ZXh0TGVuZ3RoPSI3MCIgeD0iNjY5IiB5PSI1MzkuMjAzMSI+LXk6IGRvdWJsZTwvdGV4dD48bGluZSBzdHlsZT0ic3Ryb2tlOiMwMDAwMDA7c3Ryb2tlLXdpZHRoOjAuNTsiIHgxPSI2NjQiIHgyPSI3NTkiIHkxPSI1NDQuOTUzMSIgeTI9IjU0NC45NTMxIi8+PC9nPjwhLS1jbGFzcyAzRFBvaW50U2VyaWVzLS0+PGcgaWQ9ImVsZW1fM0RQb2ludFNlcmllcyI+PHJlY3QgY29kZUxpbmU9IjUwIiBmaWxsPSIjRkZGRkZGIiBoZWlnaHQ9Ijg1LjkzNzUiIGlkPSIzRFBvaW50U2VyaWVzIiByeD0iMi41IiByeT0iMi41IiBzdHlsZT0ic3Ryb2tlOiMwMDAwMDA7c3Ryb2tlLXdpZHRoOjAuNTsiIHdpZHRoPSI5NyIgeD0iNzk1IiB5PSI0NzQuNSIvPjx0ZXh0IGZpbGw9IiMwMDAwMDAiIGZvbnQtZmFtaWx5PSJIZWx2ZXRpY2EiIGZvbnQtc2l6ZT0iMTQiIGxlbmd0aEFkanVzdD0ic3BhY2luZyIgdGV4dExlbmd0aD0iOTEiIHg9Ijc5OCIgeT0iNDkyLjczNDQiPjNEUG9pbnRTZXJpZXM8L3RleHQ+PGxpbmUgc3R5bGU9InN0cm9rZTojMDAwMDAwO3N0cm9rZS13aWR0aDowLjU7IiB4MT0iNzk2IiB4Mj0iODkxIiB5MT0iNDk5LjQ4NDQiIHkyPSI0OTkuNDg0NCIvPjx0ZXh0IGZpbGw9IiMwMDAwMDAiIGZvbnQtZmFtaWx5PSJzYW5zLXNlcmlmIiBmb250LXNpemU9IjE0IiBsZW5ndGhBZGp1c3Q9InNwYWNpbmciIHRleHRMZW5ndGg9IjcwIiB4PSI4MDEiIHk9IjUxNi43MTg4Ij4teDogZG91YmxlPC90ZXh0Pjx0ZXh0IGZpbGw9IiMwMDAwMDAiIGZvbnQtZmFtaWx5PSJzYW5zLXNlcmlmIiBmb250LXNpemU9IjE0IiBsZW5ndGhBZGp1c3Q9InNwYWNpbmciIHRleHRMZW5ndGg9IjcwIiB4PSI4MDEiIHk9IjUzMS43MDMxIj4teTogZG91YmxlPC90ZXh0Pjx0ZXh0IGZpbGw9IiMwMDAwMDAiIGZvbnQtZmFtaWx5PSJzYW5zLXNlcmlmIiBmb250LXNpemU9IjE0IiBsZW5ndGhBZGp1c3Q9InNwYWNpbmciIHRleHRMZW5ndGg9IjcwIiB4PSI4MDEiIHk9IjU0Ni42ODc1Ij4tejogZG91YmxlPC90ZXh0PjxsaW5lIHN0eWxlPSJzdHJva2U6IzAwMDAwMDtzdHJva2Utd2lkdGg6MC41OyIgeDE9Ijc5NiIgeDI9Ijg5MSIgeTE9IjU1Mi40Mzc1IiB5Mj0iNTUyLjQzNzUiLz48L2c+PCEtLWNsYXNzIEN1c3RvbVBvaW50U2VyaWVzLS0+PGcgaWQ9ImVsZW1fQ3VzdG9tUG9pbnRTZXJpZXMiPjxyZWN0IGNvZGVMaW5lPSI1NiIgZmlsbD0iI0ZGRkZGRiIgaGVpZ2h0PSI2OC44MTI1IiBpZD0iQ3VzdG9tUG9pbnRTZXJpZXMiIHJ4PSIyLjUiIHJ5PSIyLjUiIHN0eWxlPSJzdHJva2U6IzAwMDAwMDtzdHJva2Utd2lkdGg6MC41OyIgd2lkdGg9IjIyMyIgeD0iOTI3IiB5PSI0ODMiLz48dGV4dCBmaWxsPSIjMDAwMDAwIiBmb250LWZhbWlseT0ic2Fucy1zZXJpZiIgZm9udC1zaXplPSIxMiIgZm9udC1zdHlsZT0iaXRhbGljIiBsZW5ndGhBZGp1c3Q9InNwYWNpbmciIHRleHRMZW5ndGg9IjY0IiB4PSI5OTIuNSIgeT0iNDk5LjM0MzgiPiYjMTcxO3RlbXBsYXRlJiMxODc7PC90ZXh0Pjx0ZXh0IGZpbGw9IiMwMDAwMDAiIGZvbnQtZmFtaWx5PSJIZWx2ZXRpY2EiIGZvbnQtc2l6ZT0iMTQiIGxlbmd0aEFkanVzdD0ic3BhY2luZyIgdGV4dExlbmd0aD0iMTIwIiB4PSI5NjQuNSIgeT0iNTE0LjA3ODEiPkN1c3RvbVBvaW50U2VyaWVzPC90ZXh0PjxyZWN0IGZpbGw9IiNGRkZGRkYiIGhlaWdodD0iMTQuODQzOCIgc3R5bGU9InN0cm9rZTojMDAwMDAwO3N0cm9rZS13aWR0aDoxLjA7c3Ryb2tlLWRhc2hhcnJheToyLjAsMi4wOyIgd2lkdGg9IjI2IiB4PSIxMTI3IiB5PSI0ODAiLz48dGV4dCBmaWxsPSIjMDAwMDAwIiBmb250LWZhbWlseT0ic2Fucy1zZXJpZiIgZm9udC1zaXplPSIxMiIgZm9udC1zdHlsZT0iaXRhbGljIiBsZW5ndGhBZGp1c3Q9InNwYWNpbmciIHRleHRMZW5ndGg9IjI0IiB4PSIxMTI4IiB5PSI0OTIuMzQzOCI+VC4uLjwvdGV4dD48bGluZSBzdHlsZT0ic3Ryb2tlOiMwMDAwMDA7c3Ryb2tlLXdpZHRoOjAuNTsiIHgxPSI5MjgiIHgyPSIxMTQ5IiB5MT0iNTIwLjgyODEiIHkyPSI1MjAuODI4MSIvPjx0ZXh0IGZpbGw9IiMwMDAwMDAiIGZvbnQtZmFtaWx5PSJzYW5zLXNlcmlmIiBmb250LXNpemU9IjE0IiBsZW5ndGhBZGp1c3Q9InNwYWNpbmciIHRleHRMZW5ndGg9IjIxMSIgeD0iOTMzIiB5PSI1MzguMDYyNSI+LXBvaW50czogQ3VzdG9tUG9pbnQmbHQ7VHlwZXMuLi4mZ3Q7PC90ZXh0PjxsaW5lIHN0eWxlPSJzdHJva2U6IzAwMDAwMDtzdHJva2Utd2lkdGg6MC41OyIgeDE9IjkyOCIgeDI9IjExNDkiIHkxPSI1NDMuODEyNSIgeTI9IjU0My44MTI1Ii8+PC9nPjwhLS1jbGFzcyBPcGVyYXRpb25SZXN1bHQtLT48ZyBpZD0iZWxlbV9PcGVyYXRpb25SZXN1bHQiPjxyZWN0IGNvZGVMaW5lPSI2NiIgZmlsbD0iI0ZGRkZGRiIgaGVpZ2h0PSI4NS45Mzc1IiBpZD0iT3BlcmF0aW9uUmVzdWx0IiByeD0iMi41IiByeT0iMi41IiBzdHlsZT0ic3Ryb2tlOiMwMDAwMDA7c3Ryb2tlLXdpZHRoOjAuNTsiIHdpZHRoPSIyMDEiIHg9Ijc5MiIgeT0iMjYwIi8+PHRleHQgZmlsbD0iIzAwMDAwMCIgZm9udC1mYW1pbHk9IkhlbHZldGljYSIgZm9udC1zaXplPSIxNCIgbGVuZ3RoQWRqdXN0PSJzcGFjaW5nIiB0ZXh0TGVuZ3RoPSIxMDUiIHg9Ijg0MCIgeT0iMjc4LjIzNDQiPk9wZXJhdGlvblJlc3VsdDwvdGV4dD48bGluZSBzdHlsZT0ic3Ryb2tlOiMwMDAwMDA7c3Ryb2tlLXdpZHRoOjAuNTsiIHgxPSI3OTMiIHgyPSI5OTIiIHkxPSIyODQuOTg0NCIgeTI9IjI4NC45ODQ0Ii8+PHRleHQgZmlsbD0iIzAwMDAwMCIgZm9udC1mYW1pbHk9InNhbnMtc2VyaWYiIGZvbnQtc2l6ZT0iMTQiIGxlbmd0aEFkanVzdD0ic3BhY2luZyIgdGV4dExlbmd0aD0iMTg5IiB4PSI3OTgiIHk9IjMwMi4yMTg4Ij4tcmVzdWx0UG9pbnRzOiBJUG9pbnRTZXJpZXM8L3RleHQ+PHRleHQgZmlsbD0iIzAwMDAwMCIgZm9udC1mYW1pbHk9InNhbnMtc2VyaWYiIGZvbnQtc2l6ZT0iMTQiIGxlbmd0aEFkanVzdD0ic3BhY2luZyIgdGV4dExlbmd0aD0iMTEyIiB4PSI3OTgiIHk9IjMxNy4yMDMxIj4taXNTdWNjZXNzOiBib29sPC90ZXh0Pjx0ZXh0IGZpbGw9IiMwMDAwMDAiIGZvbnQtZmFtaWx5PSJzYW5zLXNlcmlmIiBmb250LXNpemU9IjE0IiBsZW5ndGhBZGp1c3Q9InNwYWNpbmciIHRleHRMZW5ndGg9IjExMyIgeD0iNzk4IiB5PSIzMzIuMTg3NSI+LW1lc3NhZ2U6IHN0cmluZzwvdGV4dD48bGluZSBzdHlsZT0ic3Ryb2tlOiMwMDAwMDA7c3Ryb2tlLXdpZHRoOjAuNTsiIHgxPSI3OTMiIHgyPSI5OTIiIHkxPSIzMzcuOTM3NSIgeTI9IjMzNy45Mzc1Ii8+PC9nPjwhLS1jbGFzcyBJT3BlcmF0aW9uLS0+PGcgaWQ9ImVsZW1fSU9wZXJhdGlvbiI+PHJlY3QgY29kZUxpbmU9Ijc0IiBmaWxsPSIjRkZGRkZGIiBoZWlnaHQ9IjUzLjgyODEiIGlkPSJJT3BlcmF0aW9uIiByeD0iMi41IiByeT0iMi41IiBzdHlsZT0ic3Ryb2tlOiMwMDAwMDA7c3Ryb2tlLXdpZHRoOjAuNTsiIHdpZHRoPSI3NiIgeD0iMjY5LjUiIHk9IjI3NiIvPjx0ZXh0IGZpbGw9IiMwMDAwMDAiIGZvbnQtZmFtaWx5PSJzYW5zLXNlcmlmIiBmb250LXNpemU9IjEyIiBmb250LXN0eWxlPSJpdGFsaWMiIGxlbmd0aEFkanVzdD0ic3BhY2luZyIgdGV4dExlbmd0aD0iNzEiIHg9IjI3MiIgeT0iMjkyLjM0MzgiPiYjMTcxO2ludGVyZmFjZSYjMTg3OzwvdGV4dD48dGV4dCBmaWxsPSIjMDAwMDAwIiBmb250LWZhbWlseT0iSGVsdmV0aWNhIiBmb250LXNpemU9IjE0IiBmb250LXN0eWxlPSJpdGFsaWMiIGxlbmd0aEFkanVzdD0ic3BhY2luZyIgdGV4dExlbmd0aD0iNzAiIHg9IjI3Mi41IiB5PSIzMDcuMDc4MSI+SU9wZXJhdGlvbjwvdGV4dD48bGluZSBzdHlsZT0ic3Ryb2tlOiMwMDAwMDA7c3Ryb2tlLXdpZHRoOjAuNTsiIHgxPSIyNzAuNSIgeDI9IjM0NC41IiB5MT0iMzEzLjgyODEiIHkyPSIzMTMuODI4MSIvPjxsaW5lIHN0eWxlPSJzdHJva2U6IzAwMDAwMDtzdHJva2Utd2lkdGg6MC41OyIgeDE9IjI3MC41IiB4Mj0iMzQ0LjUiIHkxPSIzMjEuODI4MSIgeTI9IjMyMS44MjgxIi8+PC9nPjwhLS1jbGFzcyBJVW5hcnlPcGVyYXRpb24tLT48ZyBpZD0iZWxlbV9JVW5hcnlPcGVyYXRpb24iPjxyZWN0IGNvZGVMaW5lPSI4MCIgZmlsbD0iI0ZGRkZGRiIgaGVpZ2h0PSI2OC44MTI1IiBpZD0iSVVuYXJ5T3BlcmF0aW9uIiByeD0iMi41IiByeT0iMi41IiBzdHlsZT0ic3Ryb2tlOiMwMDAwMDA7c3Ryb2tlLXdpZHRoOjAuNTsiIHdpZHRoPSIxMTEiIHg9IjciIHk9IjQ4MyIvPjx0ZXh0IGZpbGw9IiMwMDAwMDAiIGZvbnQtZmFtaWx5PSJzYW5zLXNlcmlmIiBmb250LXNpemU9IjEyIiBmb250LXN0eWxlPSJpdGFsaWMiIGxlbmd0aEFkanVzdD0ic3BhY2luZyIgdGV4dExlbmd0aD0iNzEiIHg9IjI3IiB5PSI0OTkuMzQzOCI+JiMxNzE7aW50ZXJmYWNlJiMxODc7PC90ZXh0Pjx0ZXh0IGZpbGw9IiMwMDAwMDAiIGZvbnQtZmFtaWx5PSJIZWx2ZXRpY2EiIGZvbnQtc2l6ZT0iMTQiIGZvbnQtc3R5bGU9Iml0YWxpYyIgbGVuZ3RoQWRqdXN0PSJzcGFjaW5nIiB0ZXh0TGVuZ3RoPSIxMDUiIHg9IjEwIiB5PSI1MTQuMDc4MSI+SVVuYXJ5T3BlcmF0aW9uPC90ZXh0PjxsaW5lIHN0eWxlPSJzdHJva2U6IzAwMDAwMDtzdHJva2Utd2lkdGg6MC41OyIgeDE9IjgiIHgyPSIxMTciIHkxPSI1MjAuODI4MSIgeTI9IjUyMC44MjgxIi8+PGxpbmUgc3R5bGU9InN0cm9rZTojMDAwMDAwO3N0cm9rZS13aWR0aDowLjU7IiB4MT0iOCIgeDI9IjExNyIgeTE9IjUyOC44MjgxIiB5Mj0iNTI4LjgyODEiLz48dGV4dCBmaWxsPSIjMDAwMDAwIiBmb250LWZhbWlseT0ic2Fucy1zZXJpZiIgZm9udC1zaXplPSIxNCIgbGVuZ3RoQWRqdXN0PSJzcGFjaW5nIiB0ZXh0TGVuZ3RoPSI3MiIgeD0iMTMiIHk9IjU0Ni4wNjI1Ij4rZXhlY3V0ZSgpPC90ZXh0PjwvZz48IS0tY2xhc3MgSUJpbmFyeU9wZXJhdGlvbi0tPjxnIGlkPSJlbGVtX0lCaW5hcnlPcGVyYXRpb24iPjxyZWN0IGNvZGVMaW5lPSI4NCIgZmlsbD0iI0ZGRkZGRiIgaGVpZ2h0PSI2OC44MTI1IiBpZD0iSUJpbmFyeU9wZXJhdGlvbiIgcng9IjIuNSIgcnk9IjIuNSIgc3R5bGU9InN0cm9rZTojMDAwMDAwO3N0cm9rZS13aWR0aDowLjU7IiB3aWR0aD0iMTE4IiB4PSIxNTMuNSIgeT0iNDgzIi8+PHRleHQgZmlsbD0iIzAwMDAwMCIgZm9udC1mYW1pbHk9InNhbnMtc2VyaWYiIGZvbnQtc2l6ZT0iMTIiIGZvbnQtc3R5bGU9Iml0YWxpYyIgbGVuZ3RoQWRqdXN0PSJzcGFjaW5nIiB0ZXh0TGVuZ3RoPSI3MSIgeD0iMTc3IiB5PSI0OTkuMzQzOCI+JiMxNzE7aW50ZXJmYWNlJiMxODc7PC90ZXh0Pjx0ZXh0IGZpbGw9IiMwMDAwMDAiIGZvbnQtZmFtaWx5PSJIZWx2ZXRpY2EiIGZvbnQtc2l6ZT0iMTQiIGZvbnQtc3R5bGU9Iml0YWxpYyIgbGVuZ3RoQWRqdXN0PSJzcGFjaW5nIiB0ZXh0TGVuZ3RoPSIxMTIiIHg9IjE1Ni41IiB5PSI1MTQuMDc4MSI+SUJpbmFyeU9wZXJhdGlvbjwvdGV4dD48bGluZSBzdHlsZT0ic3Ryb2tlOiMwMDAwMDA7c3Ryb2tlLXdpZHRoOjAuNTsiIHgxPSIxNTQuNSIgeDI9IjI3MC41IiB5MT0iNTIwLjgyODEiIHkyPSI1MjAuODI4MSIvPjxsaW5lIHN0eWxlPSJzdHJva2U6IzAwMDAwMDtzdHJva2Utd2lkdGg6MC41OyIgeDE9IjE1NC41IiB4Mj0iMjcwLjUiIHkxPSI1MjguODI4MSIgeTI9IjUyOC44MjgxIi8+PHRleHQgZmlsbD0iIzAwMDAwMCIgZm9udC1mYW1pbHk9InNhbnMtc2VyaWYiIGZvbnQtc2l6ZT0iMTQiIGxlbmd0aEFkanVzdD0ic3BhY2luZyIgdGV4dExlbmd0aD0iNzIiIHg9IjE1OS41IiB5PSI1NDYuMDYyNSI+K2V4ZWN1dGUoKTwvdGV4dD48L2c+PCEtLWNsYXNzIElDdXN0b21FeHRlbmRPcGVyYXRpb24tLT48ZyBpZD0iZWxlbV9JQ3VzdG9tRXh0ZW5kT3BlcmF0aW9uIj48cmVjdCBjb2RlTGluZT0iODgiIGZpbGw9IiNGRkZGRkYiIGhlaWdodD0iOTYuNjQwNiIgaWQ9IklDdXN0b21FeHRlbmRPcGVyYXRpb24iIHJ4PSIyLjUiIHJ5PSIyLjUiIHN0eWxlPSJzdHJva2U6IzAwMDAwMDtzdHJva2Utd2lkdGg6MC41OyIgd2lkdGg9IjE4OSIgeD0iMzA3IiB5PSI0NjkiLz48dGV4dCBmaWxsPSIjMDAwMDAwIiBmb250LWZhbWlseT0ic2Fucy1zZXJpZiIgZm9udC1zaXplPSIxMiIgZm9udC1zdHlsZT0iaXRhbGljIiBsZW5ndGhBZGp1c3Q9InNwYWNpbmciIHRleHRMZW5ndGg9IjcxIiB4PSIzNTIiIHk9IjQ4NS4zNDM4Ij4mIzE3MTtpbnRlcmZhY2UmIzE4Nzs8L3RleHQ+PHRleHQgZmlsbD0iIzAwMDAwMCIgZm9udC1mYW1pbHk9InNhbnMtc2VyaWYiIGZvbnQtc2l6ZT0iMTIiIGZvbnQtc3R5bGU9Iml0YWxpYyIgbGVuZ3RoQWRqdXN0PSJzcGFjaW5nIiB0ZXh0TGVuZ3RoPSI2NCIgeD0iMzU1LjUiIHk9IjQ5OC4xODc1Ij4mIzE3MTt0ZW1wbGF0ZSYjMTg3OzwvdGV4dD48dGV4dCBmaWxsPSIjMDAwMDAwIiBmb250LWZhbWlseT0iSGVsdmV0aWNhIiBmb250LXNpemU9IjE0IiBmb250LXN0eWxlPSJpdGFsaWMiIGxlbmd0aEFkanVzdD0ic3BhY2luZyIgdGV4dExlbmd0aD0iMTU1IiB4PSIzMTAiIHk9IjUxMi45MjE5Ij5JQ3VzdG9tRXh0ZW5kT3BlcmF0aW9uPC90ZXh0PjxyZWN0IGZpbGw9IiNGRkZGRkYiIGhlaWdodD0iMTQuODQzOCIgc3R5bGU9InN0cm9rZTojMDAwMDAwO3N0cm9rZS13aWR0aDoxLjA7c3Ryb2tlLWRhc2hhcnJheToyLjAsMi4wOyIgd2lkdGg9IjI2IiB4PSI0NzMiIHk9IjQ2NiIvPjx0ZXh0IGZpbGw9IiMwMDAwMDAiIGZvbnQtZmFtaWx5PSJzYW5zLXNlcmlmIiBmb250LXNpemU9IjEyIiBmb250LXN0eWxlPSJpdGFsaWMiIGxlbmd0aEFkanVzdD0ic3BhY2luZyIgdGV4dExlbmd0aD0iMjQiIHg9IjQ3NCIgeT0iNDc4LjM0MzgiPlQuLi48L3RleHQ+PGxpbmUgc3R5bGU9InN0cm9rZTojMDAwMDAwO3N0cm9rZS13aWR0aDowLjU7IiB4MT0iMzA4IiB4Mj0iNDk1IiB5MT0iNTE5LjY3MTkiIHkyPSI1MTkuNjcxOSIvPjx0ZXh0IGZpbGw9IiMwMDAwMDAiIGZvbnQtZmFtaWx5PSJzYW5zLXNlcmlmIiBmb250LXNpemU9IjE0IiBsZW5ndGhBZGp1c3Q9InNwYWNpbmciIHRleHRMZW5ndGg9Ijg1IiB4PSIzMTMiIHk9IjUzNi45MDYzIj4tbV9mdW5jdGlvbnM8L3RleHQ+PGxpbmUgc3R5bGU9InN0cm9rZTojMDAwMDAwO3N0cm9rZS13aWR0aDowLjU7IiB4MT0iMzA4IiB4Mj0iNDk1IiB5MT0iNTQyLjY1NjMiIHkyPSI1NDIuNjU2MyIvPjx0ZXh0IGZpbGw9IiMwMDAwMDAiIGZvbnQtZmFtaWx5PSJzYW5zLXNlcmlmIiBmb250LXNpemU9IjE0IiBsZW5ndGhBZGp1c3Q9InNwYWNpbmciIHRleHRMZW5ndGg9IjcyIiB4PSIzMTMiIHk9IjU1OS44OTA2Ij4rZXhlY3V0ZSgpPC90ZXh0PjwvZz48IS0tbGluayBDb3JlRW5naW5lIHRvIElQb2ludFNlcmllcy0tPjxnIGlkPSJsaW5rX0NvcmVFbmdpbmVfSVBvaW50U2VyaWVzIj48cGF0aCBjb2RlTGluZT0iMzkiIGQ9Ik03MTEuNSwxMjMuMTMgQzcxMS41LDE2OS40MiA3MTEuNSwyMzIuOTEgNzExLjUsMjcwLjQ4ICIgZmlsbD0ibm9uZSIgaWQ9IkNvcmVFbmdpbmUtdG8tSVBvaW50U2VyaWVzIiBzdHlsZT0ic3Ryb2tlOiMxODE4MTg7c3Ryb2tlLXdpZHRoOjEuMDtzdHJva2UtZGFzaGFycmF5OjcuMCw3LjA7Ii8+PHBvbHlnb24gZmlsbD0iIzE4MTgxOCIgcG9pbnRzPSI3MTEuNSwyNzUuODMsNzE1LjUsMjY2LjgzLDcxMS41LDI3MC44Myw3MDcuNSwyNjYuODMsNzExLjUsMjc1LjgzIiBzdHlsZT0ic3Ryb2tlOiMxODE4MTg7c3Ryb2tlLXdpZHRoOjEuMDsiLz48dGV4dCBmaWxsPSIjMDAwMDAwIiBmb250LWZhbWlseT0ic2Fucy1zZXJpZiIgZm9udC1zaXplPSIxMyIgbGVuZ3RoQWRqdXN0PSJzcGFjaW5nIiB0ZXh0TGVuZ3RoPSIyOCIgeD0iNzEyLjUiIHk9IjE5Ny4yODkxIj51c2VzPC90ZXh0PjwvZz48IS0tcmV2ZXJzZSBsaW5rIElQb2ludFNlcmllcyB0byAxRFBvaW50U2VyaWVzLS0+PGcgaWQ9ImxpbmtfSVBvaW50U2VyaWVzXzFEUG9pbnRTZXJpZXMiPjxwYXRoIGNvZGVMaW5lPSI2MSIgZD0iTTY4NC43MiwzNDcuMTEgQzY1OC4zMiwzODkuNjEgNjE4Ljc4LDQ1My4yNyA1OTYuNDQsNDg5LjIyICIgZmlsbD0ibm9uZSIgaWQ9IklQb2ludFNlcmllcy1iYWNrdG8tMURQb2ludFNlcmllcyIgc3R5bGU9InN0cm9rZTojMTgxODE4O3N0cm9rZS13aWR0aDoxLjA7c3Ryb2tlLWRhc2hhcnJheTo3LjAsNy4wOyIvPjxwb2x5Z29uIGZpbGw9Im5vbmUiIHBvaW50cz0iNjc4LjgxLDM0My4zNSw2OTUuMzEsMzMwLjA2LDY5MC43MSwzNTAuNzQsNjc4LjgxLDM0My4zNSIgc3R5bGU9InN0cm9rZTojMTgxODE4O3N0cm9rZS13aWR0aDoxLjA7Ii8+PC9nPjwhLS1yZXZlcnNlIGxpbmsgSVBvaW50U2VyaWVzIHRvIDJEUG9pbnRTZXJpZXMtLT48ZyBpZD0ibGlua19JUG9pbnRTZXJpZXNfMkRQb2ludFNlcmllcyI+PHBhdGggY29kZUxpbmU9IjYyIiBkPSJNNzExLjUsMzUwLjExIEM3MTEuNSwzODkuNjkgNzExLjUsNDQ1Ljg4IDcxMS41LDQ4MS43NyAiIGZpbGw9Im5vbmUiIGlkPSJJUG9pbnRTZXJpZXMtYmFja3RvLTJEUG9pbnRTZXJpZXMiIHN0eWxlPSJzdHJva2U6IzE4MTgxODtzdHJva2Utd2lkdGg6MS4wO3N0cm9rZS1kYXNoYXJyYXk6Ny4wLDcuMDsiLz48cG9seWdvbiBmaWxsPSJub25lIiBwb2ludHM9IjcwNC41LDM1MC4wNiw3MTEuNSwzMzAuMDYsNzE4LjUsMzUwLjA2LDcwNC41LDM1MC4wNiIgc3R5bGU9InN0cm9rZTojMTgxODE4O3N0cm9rZS13aWR0aDoxLjA7Ii8+PC9nPjwhLS1yZXZlcnNlIGxpbmsgSVBvaW50U2VyaWVzIHRvIDNEUG9pbnRTZXJpZXMtLT48ZyBpZD0ibGlua19JUG9pbnRTZXJpZXNfM0RQb2ludFNlcmllcyI+PHBhdGggY29kZUxpbmU9IjYzIiBkPSJNNzM4LjI4LDM0Ny4xMSBDNzYxLjM2LDM4NC4yNyA3OTQuNSw0MzcuNjIgODE3LjM5LDQ3NC40NyAiIGZpbGw9Im5vbmUiIGlkPSJJUG9pbnRTZXJpZXMtYmFja3RvLTNEUG9pbnRTZXJpZXMiIHN0eWxlPSJzdHJva2U6IzE4MTgxODtzdHJva2Utd2lkdGg6MS4wO3N0cm9rZS1kYXNoYXJyYXk6Ny4wLDcuMDsiLz48cG9seWdvbiBmaWxsPSJub25lIiBwb2ludHM9IjczMi4yOSwzNTAuNzQsNzI3LjY5LDMzMC4wNiw3NDQuMTksMzQzLjM1LDczMi4yOSwzNTAuNzQiIHN0eWxlPSJzdHJva2U6IzE4MTgxODtzdHJva2Utd2lkdGg6MS4wOyIvPjwvZz48IS0tcmV2ZXJzZSBsaW5rIElQb2ludFNlcmllcyB0byBDdXN0b21Qb2ludFNlcmllcy0tPjxnIGlkPSJsaW5rX0lQb2ludFNlcmllc19DdXN0b21Qb2ludFNlcmllcyI+PHBhdGggY29kZUxpbmU9IjY0IiBkPSJNNzY3LjQ0LDM0MS4zNSBDNzY5LjgyLDM0Mi45MyA3NzIuMTgsMzQ0LjQ4IDc3NC41LDM0NiBDODQ3LjQ5LDM5My44OSA5MzIuMzYsNDQ4LjUyIDk4NS43Niw0ODIuNzYgIiBmaWxsPSJub25lIiBpZD0iSVBvaW50U2VyaWVzLWJhY2t0by1DdXN0b21Qb2ludFNlcmllcyIgc3R5bGU9InN0cm9rZTojMTgxODE4O3N0cm9rZS13aWR0aDoxLjA7c3Ryb2tlLWRhc2hhcnJheTo3LjAsNy4wOyIvPjxwb2x5Z29uIGZpbGw9Im5vbmUiIHBvaW50cz0iNzYzLjIzLDM0Ni45Niw3NTAuNDMsMzMwLjA4LDc3MC45NiwzMzUuMjksNzYzLjIzLDM0Ni45NiIgc3R5bGU9InN0cm9rZTojMTgxODE4O3N0cm9rZS13aWR0aDoxLjA7Ii8+PC9nPjwhLS1saW5rIENvcmVFbmdpbmUgdG8gT3BlcmF0aW9uUmVzdWx0LS0+PGcgaWQ9ImxpbmtfQ29yZUVuZ2luZV9PcGVyYXRpb25SZXN1bHQiPjxwYXRoIGNvZGVMaW5lPSI3MiIgZD0iTTc1NS4zMiwxMjMuMTMgQzc4Ni41MSwxNjMuOCA4MjcuODksMjE3Ljc2IDg1Ny4wMiwyNTUuNzMgIiBmaWxsPSJub25lIiBpZD0iQ29yZUVuZ2luZS10by1PcGVyYXRpb25SZXN1bHQiIHN0eWxlPSJzdHJva2U6IzE4MTgxODtzdHJva2Utd2lkdGg6MS4wO3N0cm9rZS1kYXNoYXJyYXk6Ny4wLDcuMDsiLz48cG9seWdvbiBmaWxsPSIjMTgxODE4IiBwb2ludHM9Ijg2MC4xNSwyNTkuODIsODU3Ljg1MTQsMjUwLjI0MzEsODU3LjEwOSwyNTUuODUxLDg1MS41MDExLDI1NS4xMDg3LDg2MC4xNSwyNTkuODIiIHN0eWxlPSJzdHJva2U6IzE4MTgxODtzdHJva2Utd2lkdGg6MS4wOyIvPjx0ZXh0IGZpbGw9IiMwMDAwMDAiIGZvbnQtZmFtaWx5PSJzYW5zLXNlcmlmIiBmb250LXNpemU9IjEzIiBsZW5ndGhBZGp1c3Q9InNwYWNpbmciIHRleHRMZW5ndGg9IjI4IiB4PSI4MTQuNSIgeT0iMTk3LjI4OTEiPnVzZXM8L3RleHQ+PC9nPjwhLS1saW5rIENvcmVFbmdpbmUgdG8gSU9wZXJhdGlvbi0tPjxnIGlkPSJsaW5rX0NvcmVFbmdpbmVfSU9wZXJhdGlvbiI+PHBhdGggY29kZUxpbmU9Ijc4IiBkPSJNNjEzLjcsMTIzLjEzIEM1MjkuNTUsMTcyLjI5IDQxMi4xOCwyNDAuODUgMzUwLjAzLDI3Ny4xNiAiIGZpbGw9Im5vbmUiIGlkPSJDb3JlRW5naW5lLXRvLUlPcGVyYXRpb24iIHN0eWxlPSJzdHJva2U6IzE4MTgxODtzdHJva2Utd2lkdGg6MS4wO3N0cm9rZS1kYXNoYXJyYXk6Ny4wLDcuMDsiLz48cG9seWdvbiBmaWxsPSIjMTgxODE4IiBwb2ludHM9IjM0NS42NSwyNzkuNzEsMzU1LjQzNzMsMjc4LjYxMDEsMzQ5Ljk2MzcsMjc3LjE4MTgsMzUxLjM5MjEsMjcxLjcwODIsMzQ1LjY1LDI3OS43MSIgc3R5bGU9InN0cm9rZTojMTgxODE4O3N0cm9rZS13aWR0aDoxLjA7Ii8+PHRleHQgZmlsbD0iIzAwMDAwMCIgZm9udC1mYW1pbHk9InNhbnMtc2VyaWYiIGZvbnQtc2l6ZT0iMTMiIGxlbmd0aEFkanVzdD0ic3BhY2luZyIgdGV4dExlbmd0aD0iMjgiIHg9IjUxMC41IiB5PSIxOTcuMjg5MSI+dXNlczwvdGV4dD48L2c+PCEtLXJldmVyc2UgbGluayBJT3BlcmF0aW9uIHRvIElVbmFyeU9wZXJhdGlvbi0tPjxnIGlkPSJsaW5rX0lPcGVyYXRpb25fSVVuYXJ5T3BlcmF0aW9uIj48cGF0aCBjb2RlTGluZT0iOTMiIGQ9Ik0yNjIuMjMsMzQzLjI3IEMyMTYsMzgzLjM3IDE0NC45OSw0NDQuOTUgMTAxLjI3LDQ4Mi44NyAiIGZpbGw9Im5vbmUiIGlkPSJJT3BlcmF0aW9uLWJhY2t0by1JVW5hcnlPcGVyYXRpb24iIHN0eWxlPSJzdHJva2U6IzE4MTgxODtzdHJva2Utd2lkdGg6MS4wO3N0cm9rZS1kYXNoYXJyYXk6Ny4wLDcuMDsiLz48cG9seWdvbiBmaWxsPSJub25lIiBwb2ludHM9IjI1Ny43NiwzMzcuODcsMjc3LjQ2LDMzMC4wNiwyNjYuOTQsMzQ4LjQ1LDI1Ny43NiwzMzcuODciIHN0eWxlPSJzdHJva2U6IzE4MTgxODtzdHJva2Utd2lkdGg6MS4wOyIvPjwvZz48IS0tcmV2ZXJzZSBsaW5rIElPcGVyYXRpb24gdG8gSUJpbmFyeU9wZXJhdGlvbi0tPjxnIGlkPSJsaW5rX0lPcGVyYXRpb25fSUJpbmFyeU9wZXJhdGlvbiI+PHBhdGggY29kZUxpbmU9Ijk0IiBkPSJNMjg3LjY3LDM0OC4zNyBDMjY5Ljc1LDM4OC40MyAyNDMuNzgsNDQ2LjUzIDIyNy41Myw0ODIuODcgIiBmaWxsPSJub25lIiBpZD0iSU9wZXJhdGlvbi1iYWNrdG8tSUJpbmFyeU9wZXJhdGlvbiIgc3R5bGU9InN0cm9rZTojMTgxODE4O3N0cm9rZS13aWR0aDoxLjA7c3Ryb2tlLWRhc2hhcnJheTo3LjAsNy4wOyIvPjxwb2x5Z29uIGZpbGw9Im5vbmUiIHBvaW50cz0iMjgxLjMsMzQ1LjQ2LDI5NS44NSwzMzAuMDYsMjk0LjA4LDM1MS4xNywyODEuMywzNDUuNDYiIHN0eWxlPSJzdHJva2U6IzE4MTgxODtzdHJva2Utd2lkdGg6MS4wOyIvPjwvZz48IS0tcmV2ZXJzZSBsaW5rIElPcGVyYXRpb24gdG8gSUN1c3RvbUV4dGVuZE9wZXJhdGlvbi0tPjxnIGlkPSJsaW5rX0lPcGVyYXRpb25fSUN1c3RvbUV4dGVuZE9wZXJhdGlvbiI+PHBhdGggY29kZUxpbmU9Ijk1IiBkPSJNMzI3LjE5LDM0OC41IEMzNDIuNzYsMzgzLjcxIDM2NC40Nyw0MzIuNzggMzgwLjQsNDY4Ljc5ICIgZmlsbD0ibm9uZSIgaWQ9IklPcGVyYXRpb24tYmFja3RvLUlDdXN0b21FeHRlbmRPcGVyYXRpb24iIHN0eWxlPSJzdHJva2U6IzE4MTgxODtzdHJva2Utd2lkdGg6MS4wO3N0cm9rZS1kYXNoYXJyYXk6Ny4wLDcuMDsiLz48cG9seWdvbiBmaWxsPSJub25lIiBwb2ludHM9IjMyMC43MiwzNTEuMTgsMzE5LjAzLDMzMC4wNiwzMzMuNTIsMzQ1LjUyLDMyMC43MiwzNTEuMTgiIHN0eWxlPSJzdHJva2U6IzE4MTgxODtzdHJva2Utd2lkdGg6MS4wOyIvPjwvZz48IS0tU1JDPVtuTEpCUmppbTRCcGhBdFhwWXlQMnhIR3oyOEExc2FjSE5EZ1dUajVaR0tqaGN1WEMyZG9hVGpoeVV2VVlITENGbm1XUWVCZm5FSmtwa3ZoYldEb203OFpVMEZjYWpNSEJldTViV1lrbzRmOWExTEtBNUE0eTl1bmhhMmtRV09oS0ZVQ2JiTkpoMDN4bjVYRmR4MTc4LXBQYVpoYVd6QnVDQ1Q3V0E3dk1Tc0VINlBEUDBKUG5QZkdNTXlqWml2TlVPeFliSU52NzFCeWZwVXhOS1hZVXBxSTFfM3lzSjhFeDRKODd3UUJKMGM1THpCRlctV2xUMGhjMXVXNHFvd1dGTHRNRkZiUGR0X0pudWFGcTUwTDUtRUJfSm80M1NXS2huWGJWYXhxbVZndU5tTDBsZ1k1QkFBWGNFRnVEQXJLS2tUZERYOEhobGNReWhsdVR4MjEzYkpVWTE1ZFg0dEJ4ZExFdl9yZTdCN0xmRENSbDE4aENHSkFoOEs2UDBnQ1V6d3FBbDNyREVzTHpsQUNzU0hLVF94bFNZSXVVOEREMmZZN3h2NU14d0hVZWt0ZWpVUlNmcnBpREZGVFBRSHA3MndKQmdRUFVvWTQzRk9Ud0pYTHpUaEh2TTJmOUt0eW5jUTI3QjNHbXJKME5sdFdTSnZmOTJKNWVxVGczZXdsbXBqYm1JN085b09MUHVodV9yUzNuNlEweHh4azlib3pDVEVWN0JiNXRUOGxPVGZVYzZoT2J4WFNFZVFPbEJLZWJPS3d3bTlUSHNHbkI2SktSN3Zlb1pseXE5bk1EcHFDa3BxQ3dQVlYzM2Fzc19od1ZidEY3dFE2akhnTzNDM0t0NlJ1dFVCaUtlWlg0am5ZV1FxWm16UFJ1SWZxb0k1a3J6YVpXRW16ZmtrdVBxbnFwVWtZUXhxNlJpeDVleEdyZXhWZ0JTbGlOalZQSGs0clRMbU1hWC03LU4xY1VMUy13Yk1kdHY3LXAzcU1Uc2xpbWxKTnM4RnkyXS0tPjwvZz48L3N2Zz4=;imageBorder=default;" vertex="1" parent="TtmFSg_aWq5ySA_oG-eG-19">
            <mxGeometry x="560.33" y="150" width="1161" height="572" as="geometry" />
          </mxCell>
        </UserObject>
        <mxCell id="M8zQa_Ylqo-KHK09IEU5-125" value="&lt;font style=&quot;font-size: 23px&quot;&gt;CoreEngine Layer&lt;/font&gt;" style="text;html=1;strokeColor=none;fillColor=none;align=center;verticalAlign=middle;whiteSpace=wrap;rounded=0;" parent="TtmFSg_aWq5ySA_oG-eG-19" vertex="1">
          <mxGeometry width="256.4102564102564" height="69.41666666666669" as="geometry" />
        </mxCell>
        <mxCell id="TtmFSg_aWq5ySA_oG-eG-14" style="edgeStyle=orthogonalEdgeStyle;rounded=0;orthogonalLoop=1;jettySize=auto;html=1;fontFamily=Helvetica;fontSize=12;fontColor=default;" edge="1" parent="TtmFSg_aWq5ySA_oG-eG-19" source="TtmFSg_aWq5ySA_oG-eG-11" target="TtmFSg_aWq5ySA_oG-eG-10">
          <mxGeometry relative="1" as="geometry" />
        </mxCell>
        <mxCell id="TtmFSg_aWq5ySA_oG-eG-11" value="UnaryBasicOperation(CRUD)&lt;span&gt;: &lt;br&gt;&lt;/span&gt;&lt;blockquote style=&quot;margin: 0 0 0 40px ; border: none ; padding: 0px&quot;&gt;&lt;span&gt;While Create, Update, and Delete specifically might seem like they could require two sets (old data and new data), they are essentially unary because they operate on one dataset at a time. The Read operation also falls into this category as it merely fetches or visualizes the data.&lt;/span&gt;&lt;/blockquote&gt;&lt;div&gt;&lt;br&gt;&lt;/div&gt;&lt;div&gt;CalculusOperation:&lt;/div&gt;&lt;div&gt;&lt;ul&gt;&lt;li&gt;&lt;span&gt;Derivatives: Computed on a single function to determine its rate of change.&lt;/span&gt;&lt;/li&gt;&lt;li&gt;Integrals: Computed over a single function to determine the area under the curve.&lt;/li&gt;&lt;/ul&gt;&lt;/div&gt;&lt;div&gt;&lt;br&gt;&lt;/div&gt;&lt;div&gt;ApproximationOperation(Interpolation and Fitting):&amp;nbsp;&lt;/div&gt;&lt;blockquote style=&quot;margin: 0 0 0 40px ; border: none ; padding: 0px&quot;&gt;&lt;div&gt;Given a set of data points, this operation aims to fit a curve (or surface) through them. It typically acts on a single dataset.&lt;/div&gt;&lt;/blockquote&gt;&lt;div&gt;&lt;br&gt;&lt;/div&gt;&lt;div&gt;StatisticalOperation:&lt;/div&gt;&lt;div&gt;&lt;ul&gt;&lt;li&gt;&lt;span&gt;Descriptive Statistics: Such as mean, median, mode, variance, etc., which describe a single dataset.&lt;/span&gt;&lt;/li&gt;&lt;li&gt;Inferential Statistics: Making predictions or inferences about a population based on a sample.&lt;/li&gt;&lt;li&gt;Hypothesis Testing: Tests a statement or hypothesis about a parameter of a population, based on sample data.&lt;/li&gt;&lt;/ul&gt;&lt;/div&gt;&lt;div&gt;&lt;br&gt;&lt;/div&gt;&lt;div&gt;UnaryLinearAlgebraOperation:&lt;/div&gt;&lt;div&gt;&lt;ul&gt;&lt;li&gt;&lt;span&gt;Solving systems of linear equations (assuming it&#39;s about solving for one set of variables).&lt;/span&gt;&lt;/li&gt;&lt;li&gt;Matrix operations, such as finding determinants, inverses, etc. (for a single matrix).&lt;/li&gt;&lt;/ul&gt;&lt;/div&gt;" style="rounded=0;whiteSpace=wrap;html=1;align=left;" vertex="1" parent="TtmFSg_aWq5ySA_oG-eG-19">
          <mxGeometry x="354.96000000000004" y="810" width="810" height="360" as="geometry" />
        </mxCell>
        <mxCell id="TtmFSg_aWq5ySA_oG-eG-16" style="edgeStyle=orthogonalEdgeStyle;rounded=0;orthogonalLoop=1;jettySize=auto;html=1;fontFamily=Helvetica;fontSize=12;fontColor=default;" edge="1" parent="TtmFSg_aWq5ySA_oG-eG-19" source="TtmFSg_aWq5ySA_oG-eG-12" target="TtmFSg_aWq5ySA_oG-eG-10">
          <mxGeometry relative="1" as="geometry" />
        </mxCell>
        <mxCell id="TtmFSg_aWq5ySA_oG-eG-12" value="&lt;div&gt;BinaryBasicOperation:&lt;/div&gt;&lt;div&gt;&lt;ul&gt;&lt;li&gt;&lt;span&gt;Add: Combines two datasets or curves.&lt;/span&gt;&lt;/li&gt;&lt;li&gt;Delete: Might seem unary, but if you consider it as subtracting one dataset from another, it can be thought of as binary. However, this interpretation might differ based on the exact functionality intended.&lt;/li&gt;&lt;li&gt;Multiply: Multiplies corresponding data points from two datasets.&lt;/li&gt;&lt;li&gt;Division: Divides data points of one dataset by the corresponding points of another.&lt;/li&gt;&lt;/ul&gt;&lt;/div&gt;&lt;div&gt;&lt;br&gt;&lt;/div&gt;&lt;div&gt;RegressionOperation:&amp;nbsp;&lt;/div&gt;&lt;blockquote style=&quot;margin: 0 0 0 40px ; border: none ; padding: 0px&quot;&gt;&lt;div&gt;While it identifies relationships between variables, regression is typically binary because it tries to relate an independent variable (or multiple independent variables) to a dependent one.&lt;/div&gt;&lt;/blockquote&gt;&lt;div&gt;&lt;br&gt;&lt;/div&gt;&lt;div&gt;BinaryLinearAlgebraOperation:&lt;/div&gt;&lt;div&gt;&lt;ul&gt;&lt;li&gt;&lt;span&gt;Solving systems of linear equations when trying to relate two sets of variables can be considered binary.&lt;/span&gt;&lt;/li&gt;&lt;li&gt;Matrix multiplication, which requires two matrices.&lt;/li&gt;&lt;/ul&gt;&lt;/div&gt;" style="rounded=0;whiteSpace=wrap;html=1;align=left;" vertex="1" parent="TtmFSg_aWq5ySA_oG-eG-19">
          <mxGeometry x="1214.88" y="810" width="634.71" height="271" as="geometry" />
        </mxCell>
        <mxCell id="M8zQa_Ylqo-KHK09IEU5-93" value="" style="group" parent="1" vertex="1" connectable="0">
          <mxGeometry x="-520" y="2410" width="490" height="220" as="geometry" />
        </mxCell>
        <mxCell id="M8zQa_Ylqo-KHK09IEU5-94" value="" style="shape=folder;fontStyle=1;spacingTop=10;tabWidth=130;tabHeight=40;tabPosition=left;html=1;" parent="M8zQa_Ylqo-KHK09IEU5-93" vertex="1">
          <mxGeometry width="490" height="220" as="geometry" />
        </mxCell>
        <mxCell id="M8zQa_Ylqo-KHK09IEU5-95" value="Data Layer" style="text;html=1;strokeColor=none;fillColor=none;align=center;verticalAlign=middle;whiteSpace=wrap;rounded=0;" parent="M8zQa_Ylqo-KHK09IEU5-93" vertex="1">
          <mxGeometry width="130" height="40" as="geometry" />
        </mxCell>
        <mxCell id="M8zQa_Ylqo-KHK09IEU5-96" value="&lt;p style=&quot;margin: 0px ; margin-top: 6px ; text-align: center&quot;&gt;&lt;b&gt;Storage&lt;/b&gt;&lt;/p&gt;&lt;hr&gt;&lt;p style=&quot;margin: 0px ; margin-left: 8px&quot;&gt;&lt;br&gt;&lt;/p&gt;" style="align=left;overflow=fill;html=1;dropTarget=0;" parent="M8zQa_Ylqo-KHK09IEU5-93" vertex="1">
          <mxGeometry x="20" y="60" width="380" height="90" as="geometry" />
        </mxCell>
        <mxCell id="M8zQa_Ylqo-KHK09IEU5-97" value="" style="shape=component;jettyWidth=8;jettyHeight=4;" parent="M8zQa_Ylqo-KHK09IEU5-96" vertex="1">
          <mxGeometry x="1" width="20" height="20" relative="1" as="geometry">
            <mxPoint x="-24" y="4" as="offset" />
          </mxGeometry>
        </mxCell>
      </root>
    </mxGraphModel>
  </diagram>
</mxfile>
